# Wavefront Obj file
# 
# verts: 112 uv-s: 190
mtllib bookcase_def.mtl

g BookCase_Low9
#pivot 0.000000 0.000000 0.000000

v -20.584818 0.234848 -15.091950
v -17.034643 0.234848 -15.091950
v -20.641216 0.533863 -15.091950
v -16.978243 0.533863 -15.091950
v -20.641216 0.533863 -16.886093
v -16.978243 0.533863 -16.886093
v -20.584818 0.234848 -16.886093
v -17.034643 0.234848 -16.886093
v -20.013269 0.096322 -15.071230
v -20.013269 0.096322 -16.906813
v -20.274920 0.533863 -16.906813
v -20.274920 0.533863 -15.071230
v -17.570690 0.096322 -15.071230
v -17.307913 0.533863 -15.071230
v -17.307913 0.533863 -16.906813
v -17.570690 0.096322 -16.906813
v -20.948231 0.040557 -16.990273
v -20.274210 -0.034077 -16.990273
v -20.274210 -0.034077 -14.987767
v -20.948231 0.040557 -14.987767
v -17.308638 -0.034077 -16.990273
v -17.308638 -0.034077 -14.987767
v -16.671230 0.040557 -16.990273
v -16.671230 0.040557 -14.987767
v -20.937799 -0.334079 -16.990273
v -20.202312 -0.334079 -16.990273
v -20.202312 -0.334079 -14.987767
v -20.937799 -0.334079 -14.987767
v -17.371780 -0.334079 -16.990273
v -17.371780 -0.334079 -14.987767
v -16.686226 -0.334079 -16.990273
v -16.686226 -0.334079 -14.987767
v -20.239988 1.747656 -15.360575
v -17.389084 1.611710 -15.360575
v -20.230377 1.949230 -15.360575
v -17.379473 1.813284 -15.360575
v -20.230377 1.949230 -16.580334
v -17.379473 1.813284 -16.580334
v -20.239988 1.747656 -16.580334
v -17.389084 1.611710 -16.580334
v -20.282412 4.080118 -15.360575
v -17.133387 4.020543 -15.360575
v -20.278728 4.275032 -15.360575
v -17.129702 4.215456 -15.360575
v -20.278728 4.275032 -16.580334
v -17.129702 4.215456 -16.580334
v -20.282412 4.080118 -16.580334
v -17.133387 4.020543 -16.580334
v -20.529119 2.902798 -15.360575
v -17.079494 3.093181 -15.360575
v -20.539968 3.099311 -15.360575
v -17.090342 3.289694 -15.360575
v -20.539968 3.099311 -16.580334
v -17.090342 3.289694 -16.580334
v -20.529119 2.902798 -16.580334
v -17.079494 3.093181 -16.580334
v -20.375851 5.102895 -15.360575
v -17.232414 5.299622 -15.360575
v -20.387049 5.281769 -15.360575
v -17.243608 5.478496 -15.360575
v -20.387049 5.281769 -16.580334
v -17.243608 5.478496 -16.580334
v -20.375851 5.102895 -16.580334
v -17.232414 5.299622 -16.580334
v -20.573963 0.518768 -15.267334
v -17.050705 0.518768 -15.267334
v -20.571636 6.354885 -15.267334
v -16.933720 7.007040 -15.267334
v -20.571636 6.354885 -16.732666
v -16.933720 7.007040 -16.732666
v -20.573963 0.518768 -16.732666
v -17.050705 0.518768 -16.732666
v -20.228630 6.039218 -16.732666
v -17.263556 6.584466 -16.732666
v -17.474295 0.934861 -16.732666
v -20.146765 0.796925 -16.732666
v -20.228630 6.039218 -15.353330
v -17.263556 6.584466 -15.353330
v -17.474295 0.934861 -15.353330
v -20.146765 0.796925 -15.353330
v -20.281588 1.947948 -15.267334
v -17.241148 1.994152 -15.267334
v -17.241148 1.994152 -16.732666
v -17.549652 2.160589 -16.732666
v -17.549652 2.160589 -15.353330
v -20.001158 2.068401 -15.353330
v -20.001158 2.068401 -16.732666
v -20.281588 1.947948 -16.732666
v -20.753479 3.426104 -16.732666
v -20.496679 3.325771 -16.732666
v -20.496679 3.325771 -15.353330
v -17.104170 3.666529 -15.353330
v -17.104170 3.666529 -16.732666
v -16.804659 3.633782 -16.732666
v -16.804659 3.633782 -15.267334
v -20.753479 3.426104 -15.267334
v -20.402912 4.931067 -16.732666
v -20.125835 4.757140 -16.732666
v -20.125835 4.757140 -15.353330
v -17.391748 4.949259 -15.353330
v -17.391748 4.949259 -16.732666
v -17.077076 5.140932 -16.732666
v -17.077076 5.140932 -15.267334
v -20.402912 4.931067 -15.267334
v -20.747499 0.402059 -14.990795
v -16.891495 0.402059 -14.990795
v -20.697865 0.564141 -15.068237
v -16.953279 0.648856 -15.068237
v -20.637758 0.564141 -16.929792
v -16.872429 0.648856 -16.929792
v -20.687391 0.402059 -16.981106
v -16.810640 0.402059 -16.981106
# 112 positions

vt 0.713193 0.068533
vt 0.733133 0.035188
vt 0.919277 0.035188
vt 0.939303 0.068533
vt 0.689576 0.045745
vt 0.685278 0.068533
vt 0.960128 0.045745
vt 0.964426 0.068533
vt 0.661882 0.030939
vt 0.713247 0.025251
vt 0.939247 0.025251
vt 0.987823 0.030939
vt 0.662677 0.002388
vt 0.718727 0.002388
vt 0.934435 0.002388
vt 0.986680 0.002388
vt 0.733133 0.120541
vt 0.713193 0.153885
vt 0.939303 0.153885
vt 0.919277 0.120541
vt 0.685278 0.153885
vt 0.689576 0.131098
vt 0.964426 0.153885
vt 0.960128 0.131098
vt 0.713247 0.110604
vt 0.661882 0.116292
vt 0.987823 0.116292
vt 0.939247 0.110604
vt 0.718727 0.087741
vt 0.662677 0.087741
vt 0.986680 0.087741
vt 0.934435 0.087741
vt 0.573185 0.237034
vt 0.573185 0.331407
vt 0.447605 0.331407
vt 0.447605 0.237034
vt 0.410020 0.182847
vt 0.604490 0.182847
vt 0.604490 0.215258
vt 0.410020 0.215258
vt 0.398728 0.161788
vt 0.615782 0.161788
vt 0.398728 0.121180
vt 0.615782 0.121180
vt 0.604490 0.074516
vt 0.410020 0.074516
vt 0.410020 0.106926
vt 0.604490 0.106926
vt 0.615782 0.053456
vt 0.398728 0.053456
vt 0.615782 0.012849
vt 0.398728 0.012849
vt 0.641858 0.335698
vt 0.604044 0.335698
vt 0.604044 0.232743
vt 0.641858 0.232743
vt 0.416794 0.232743
vt 0.416794 0.335698
vt 0.381548 0.335698
vt 0.381548 0.232743
vt 0.588183 0.232743
vt 0.588183 0.335698
vt 0.432556 0.335698
vt 0.432556 0.232743
vt 0.497499 0.370407
vt 0.683598 0.370407
vt 0.683598 0.449936
vt 0.497499 0.449936
vt 0.683598 0.463098
vt 0.497499 0.463098
vt 0.683598 0.542628
vt 0.497499 0.542628
vt 0.197338 0.253088
vt 0.362605 0.253088
vt 0.362605 0.317092
vt 0.197338 0.317092
vt 0.362605 0.327321
vt 0.197338 0.327321
vt 0.362605 0.391325
vt 0.197338 0.391325
vt 0.493845 0.580130
vt 0.679984 0.580130
vt 0.679984 0.645847
vt 0.493845 0.645847
vt 0.679984 0.656452
vt 0.493845 0.656452
vt 0.679984 0.722169
vt 0.493845 0.722169
vt 0.012800 0.251883
vt 0.177675 0.251883
vt 0.177675 0.315734
vt 0.012800 0.315734
vt 0.177675 0.325118
vt 0.012800 0.325118
vt 0.177675 0.388969
vt 0.012800 0.388969
vt 0.060632 0.506408
vt 0.219925 0.508832
vt 0.242789 0.594730
vt 0.035915 0.583853
vt 0.045317 0.431535
vt 0.229901 0.431535
vt 0.228521 0.673693
vt 0.054275 0.662695
vt 0.236029 0.771456
vt 0.045440 0.737290
vt 0.375966 0.803655
vt 0.595531 0.803655
vt 0.595531 0.890706
vt 0.375966 0.890706
vt 0.265683 0.582919
vt 0.469481 0.603390
vt 0.442719 0.512923
vt 0.295450 0.507385
vt 0.447246 0.439290
vt 0.286703 0.431004
vt 0.287960 0.668906
vt 0.452205 0.680447
vt 0.281785 0.745924
vt 0.459906 0.778679
vt 0.898504 0.803655
vt 0.898504 0.890706
vt 0.797705 0.890706
vt 0.797705 0.803655
vt 0.986880 0.803655
vt 0.986880 0.890706
vt 0.706718 0.890706
vt 0.706718 0.803655
vt 0.106809 0.890706
vt 0.106809 0.803655
vt 0.198989 0.803655
vt 0.198989 0.890706
vt 0.020147 0.890706
vt 0.020147 0.803655
vt 0.290789 0.803655
vt 0.290789 0.890706
vt 0.733997 0.735186
vt 0.970962 0.777665
vt 0.949477 0.750140
vt 0.756339 0.714624
vt 0.959859 0.560073
vt 0.979368 0.557940
vt 0.950937 0.451139
vt 0.930841 0.461980
vt 0.963341 0.355036
vt 0.733845 0.355036
vt 0.761672 0.373154
vt 0.935750 0.382139
vt 0.771157 0.455975
vt 0.752890 0.448129
vt 0.722152 0.544412
vt 0.738879 0.537877
vt 0.744987 0.642442
vt 0.763035 0.631113
vt 0.941127 0.643627
vt 0.961624 0.656112
vt 0.988153 0.989975
vt 0.812616 0.989975
vt 0.812616 0.909662
vt 0.988153 0.909662
vt 0.640572 0.909662
vt 0.640572 0.989975
vt 0.549132 0.989975
vt 0.549132 0.909662
vt 0.477629 0.989975
vt 0.477629 0.909662
vt 0.717113 0.909662
vt 0.717113 0.989975
vt 0.321816 0.989975
vt 0.321816 0.909662
vt 0.247301 0.909662
vt 0.247301 0.989975
vt 0.168609 0.989975
vt 0.168609 0.909662
vt 0.082516 0.989975
vt 0.082516 0.909662
vt 0.007626 0.989975
vt 0.007626 0.909662
vt 0.686133 0.178722
vt 0.968001 0.176945
vt 0.958669 0.191956
vt 0.693071 0.189632
vt 0.963801 0.325428
vt 0.697254 0.327977
vt 0.973077 0.339107
vt 0.690539 0.338034
vt 0.053767 0.173714
vt 0.308674 0.173714
vt 0.303358 0.042845
vt 0.049815 0.042845
# 190 texture coordinates

vn -0.023576 -0.010180 0.999670
vn 0.003080 0.135038 0.990835
vn -0.002543 0.132906 0.991125
vn 0.025687 -0.011131 0.999608
vn 0.003080 0.135034 -0.990836
vn -0.023574 -0.010180 -0.999670
vn 0.025686 -0.011131 -0.999608
vn -0.002543 0.132902 -0.991126
vn 0.000000 -1.000000 0.000000
vn 0.000000 -1.000000 0.000000
vn 0.000000 -1.000000 0.000000
vn 0.000000 -1.000000 0.000000
vn 0.901877 0.431992 0.000000
vn 0.901877 0.431992 0.000000
vn 0.982672 -0.185352 0.000000
vn 0.982672 -0.185352 0.000000
vn -0.901876 0.431995 0.000000
vn -0.901876 0.431995 0.000000
vn -0.982673 -0.185346 0.000000
vn -0.982673 -0.185346 0.000000
vn 0.000000 -1.000000 0.000000
vn 0.000000 -1.000000 0.000000
vn 0.000000 -1.000000 0.000000
vn 0.000000 -1.000000 0.000000
vn -0.047133 -0.020352 -0.998681
vn 0.004640 0.203434 -0.979078
vn 0.004640 0.203440 0.979076
vn -0.047135 -0.020353 0.998681
vn -0.003831 0.200249 0.979738
vn 0.051355 -0.022254 0.998433
vn 0.051352 -0.022253 -0.998433
vn -0.003832 0.200242 -0.979739
vn 0.000000 -1.000000 0.000000
vn 0.000000 -1.000000 0.000000
vn 0.000000 -1.000000 0.000000
vn 0.000000 -1.000000 0.000000
vn 0.028757 0.213196 -0.976586
vn 0.028757 0.213196 -0.976586
vn 0.447018 -0.894525 0.000000
vn 0.447018 -0.894525 0.000000
vn 0.447018 -0.894525 0.000000
vn 0.447018 -0.894525 0.000000
vn 0.028758 0.213202 0.976585
vn 0.028758 0.213202 0.976585
vn -0.864824 0.502075 0.000000
vn -0.864824 0.502075 0.000000
vn -0.445498 -0.895283 0.000000
vn -0.445498 -0.895283 0.000000
vn -0.445498 -0.895283 0.000000
vn -0.445498 -0.895283 0.000000
vn -0.030097 0.210915 -0.977041
vn -0.030097 0.210915 -0.977041
vn 0.867863 0.496804 0.000000
vn 0.867863 0.496804 0.000000
vn -0.030098 0.210922 0.977039
vn -0.030098 0.210922 0.977039
vn 0.000000 0.000000 -1.000000
vn 0.000000 0.000000 -1.000000
vn 0.972463 0.233057 0.000000
vn 0.972463 0.233057 0.000000
vn 0.972463 0.233057 0.000000
vn 0.972463 0.233057 0.000000
vn 0.000000 0.000000 1.000000
vn 0.000000 0.000000 1.000000
vn -0.999613 -0.027833 0.000000
vn -0.999613 -0.027833 0.000000
vn -0.978560 0.205962 0.000000
vn -0.978560 0.205962 0.000000
vn -0.978560 0.205962 0.000000
vn -0.978560 0.205962 0.000000
vn 0.000000 0.000000 -1.000000
vn 0.000000 0.000000 -1.000000
vn 0.999200 -0.039995 0.000000
vn 0.999200 -0.039995 0.000000
vn 0.000000 0.000000 1.000000
vn 0.000000 0.000000 1.000000
vn 0.047631 0.998865 0.000000
vn 0.047631 0.998865 0.000000
vn 0.047631 0.998865 0.000000
vn 0.047631 0.998865 0.000000
vn 0.000000 0.000000 -1.000000
vn 0.000000 0.000000 -1.000000
vn 0.000000 0.000000 -1.000000
vn 0.000000 0.000000 -1.000000
vn -0.047631 -0.998865 0.000000
vn -0.047631 -0.998865 0.000000
vn -0.047631 -0.998865 0.000000
vn -0.047631 -0.998865 0.000000
vn 0.018915 0.999821 0.000000
vn 0.018915 0.999821 0.000000
vn 0.018915 0.999821 0.000000
vn 0.018915 0.999821 0.000000
vn 0.000000 0.000000 -1.000000
vn 0.000000 0.000000 -1.000000
vn 0.000000 0.000000 -1.000000
vn 0.000000 0.000000 -1.000000
vn -0.018915 -0.999821 0.000000
vn -0.018915 -0.999821 0.000000
vn -0.018915 -0.999821 0.000000
vn -0.018915 -0.999821 0.000000
vn -0.055106 0.998481 0.000000
vn -0.055106 0.998481 0.000000
vn -0.055106 0.998481 0.000000
vn -0.055106 0.998481 0.000000
vn 0.000000 0.000000 -1.000000
vn 0.000000 0.000000 -1.000000
vn 0.000000 0.000000 -1.000000
vn 0.000000 0.000000 -1.000000
vn 0.055106 -0.998481 0.000000
vn 0.055106 -0.998481 0.000000
vn 0.055106 -0.998481 0.000000
vn 0.055106 -0.998481 0.000000
vn -0.062461 0.998047 0.000000
vn -0.062461 0.998047 0.000000
vn -0.062461 0.998047 0.000000
vn -0.062461 0.998047 0.000000
vn 0.000000 0.000000 -1.000000
vn 0.000000 0.000000 -1.000000
vn 0.000000 0.000000 -1.000000
vn 0.000000 0.000000 -1.000000
vn 0.062461 -0.998047 0.000000
vn 0.062461 -0.998047 0.000000
vn 0.062461 -0.998047 0.000000
vn 0.062461 -0.998047 0.000000
vn 0.000000 0.000000 1.000000
vn 0.000000 0.000000 1.000000
vn 0.000000 0.000000 1.000000
vn 0.000000 0.000000 1.000000
vn -0.176453 0.984309 0.000000
vn -0.176453 0.984309 0.000000
vn -0.176453 0.984309 0.000000
vn -0.176453 0.984309 0.000000
vn 0.000000 0.000000 -1.000000
vn 0.000000 0.000000 -1.000000
vn 0.000000 0.000000 -1.000000
vn 0.000000 0.000000 -1.000000
vn 0.997829 -0.065856 0.000000
vn 0.997829 -0.065856 0.000000
vn 0.999173 -0.040668 0.000000
vn 0.999173 -0.040668 0.000000
vn -0.998563 -0.053587 0.000000
vn -0.998563 -0.053587 0.000000
vn -0.999197 -0.040068 0.000000
vn -0.999197 -0.040068 0.000000
vn 0.000000 0.000000 -1.000000
vn 0.000000 0.000000 -1.000000
vn 0.000000 0.000000 -1.000000
vn 0.000000 0.000000 -1.000000
vn 0.000000 0.000000 -1.000000
vn 0.000000 0.000000 -1.000000
vn 0.000000 0.000000 -1.000000
vn 0.000000 0.000000 -1.000000
vn 0.000000 0.000000 -1.000000
vn 0.000000 0.000000 -1.000000
vn 0.000000 0.000000 -1.000000
vn 0.000000 0.000000 -1.000000
vn 0.000000 0.000000 -1.000000
vn 0.000000 0.000000 -1.000000
vn 0.000000 0.000000 -1.000000
vn 0.000000 0.000000 -1.000000
vn 0.180858 -0.983509 0.000000
vn 0.180858 -0.983509 0.000000
vn 0.180858 -0.983509 0.000000
vn 0.180858 -0.983509 0.000000
vn -0.999438 0.033528 0.000000
vn -0.999438 0.033528 0.000000
vn -0.993610 0.112865 0.000000
vn -0.993610 0.112865 0.000000
vn -0.051545 0.998671 0.000000
vn -0.051545 0.998671 0.000000
vn -0.051545 0.998671 0.000000
vn -0.051545 0.998671 0.000000
vn 0.991472 0.130320 0.000000
vn 0.991472 0.130320 0.000000
vn 0.998143 0.060910 0.000000
vn 0.998143 0.060910 0.000000
vn 0.000000 0.000000 1.000000
vn 0.000000 0.000000 1.000000
vn 0.991772 0.128018 0.000000
vn 0.991772 0.128018 0.000000
vn -0.998116 -0.061364 0.000000
vn -0.998116 -0.061364 0.000000
vn 0.000000 0.000000 -1.000000
vn 0.000000 0.000000 -1.000000
vn 0.993507 -0.113775 0.000000
vn 0.993507 -0.113775 0.000000
vn -0.979709 0.200425 0.000000
vn -0.979709 0.200425 0.000000
vn 0.000000 0.000000 -1.000000
vn 0.000000 0.000000 -1.000000
vn 0.996239 -0.086642 0.000000
vn 0.996239 -0.086642 0.000000
vn 0.000000 0.000000 -1.000000
vn 0.000000 0.000000 -1.000000
vn -0.997469 -0.071095 0.000000
vn -0.997469 -0.071095 0.000000
vn 0.000000 0.000000 -1.000000
vn 0.000000 0.000000 -1.000000
vn 0.998696 0.051052 0.000000
vn 0.998696 0.051052 0.000000
vn 0.000000 0.000000 1.000000
vn 0.000000 0.000000 1.000000
vn -0.998463 0.055426 0.000000
vn -0.998463 0.055426 0.000000
vn 0.996801 0.079922 0.000000
vn 0.996801 0.079922 0.000000
vn 0.000000 0.000000 -1.000000
vn 0.000000 0.000000 -1.000000
vn -0.996941 0.078156 0.000000
vn -0.996941 0.078156 0.000000
vn 0.997062 -0.076595 0.000000
vn 0.997062 -0.076595 0.000000
vn 0.000000 0.000000 1.000000
vn 0.000000 0.000000 1.000000
vn -0.993052 -0.117678 0.000000
vn -0.993052 -0.117678 0.000000
vn -0.003947 0.354134 0.935187
vn -0.003947 0.354134 0.935187
vn -0.003947 0.354134 0.935187
vn -0.003947 0.354134 0.935187
vn -0.022555 0.999745 -0.000854
vn -0.022555 0.999745 -0.000854
vn -0.022555 0.999745 -0.000854
vn -0.022555 0.999745 -0.000854
vn -0.002698 0.243368 -0.969930
vn -0.002698 0.243368 -0.969930
vn -0.002698 0.243368 -0.969930
vn -0.002698 0.243368 -0.969930
vn 0.000000 -1.000000 0.000000
vn 0.000000 -1.000000 0.000000
vn 0.000000 -1.000000 0.000000
vn 0.000000 -1.000000 0.000000
vn 0.968750 0.244684 0.040669
vn 0.968750 0.244684 0.040669
vn 0.968750 0.244684 0.040669
vn 0.968750 0.244684 0.040669
vn -0.956417 0.290475 -0.029849
vn -0.956417 0.290475 -0.029849
vn -0.956417 0.290475 -0.029849
vn -0.956417 0.290475 -0.029849
# 240 normals

usemtl lambert11SG
s 1
f 12/1/1 9/2/2 13/3/3 14/4/4
f 1/5/27 9/2/2 12/1/1 3/6/28
f 14/4/4 13/3/3 2/7/29 4/8/30
f 9/2/2 1/5/27 20/9/43 19/10/44
f 2/7/29 13/3/3 22/11/55 24/12/56
f 19/10/44 20/9/43 28/13/63 27/14/64
f 24/12/56 22/11/55 30/15/75 32/16/76
s 2
f 10/17/5 11/18/6 15/19/7 16/20/8
f 5/21/25 11/18/6 10/17/5 7/22/26
f 16/20/8 15/19/7 6/23/31 8/24/32
f 7/22/26 10/17/5 18/25/37 17/26/38
f 16/20/8 8/24/32 23/27/51 21/28/52
f 17/26/38 18/25/37 26/29/57 25/30/58
f 21/28/52 23/27/51 31/31/71 29/32/72
s 3
f 9/33/9 10/34/10 16/35/11 13/36/12
s 4
f 2/37/13 8/38/14 6/39/15 4/40/16
f 8/38/14 2/37/13 24/41/53 23/42/54
f 23/42/54 24/41/53 32/43/73 31/44/74
s 5
f 7/45/17 1/46/18 3/47/19 5/48/20
f 1/46/18 7/45/17 17/49/45 20/50/46
f 20/50/46 17/49/45 25/51/65 28/52/66
s 6
f 25/53/21 26/54/22 27/55/23 28/56/24
s 7
f 30/57/33 29/58/34 31/59/35 32/60/36
s 8
f 10/34/39 9/33/40 19/61/41 18/62/42
s 9
f 13/36/47 16/35/48 21/63/49 22/64/50
s 10
f 18/62/59 19/61/60 27/55/61 26/54/62
s 11
f 22/64/67 21/63/68 29/58/69 30/57/70
s 12
f 35/65/77 36/66/78 38/67/79 37/68/80
s 13
f 37/68/81 38/67/82 40/69/83 39/70/84
s 14
f 39/70/85 40/69/86 34/71/87 33/72/88
s 15
f 43/73/89 44/74/90 46/75/91 45/76/92
s 16
f 45/76/93 46/75/94 48/77/95 47/78/96
s 17
f 47/78/97 48/77/98 42/79/99 41/80/100
s 18
f 51/81/101 52/82/102 54/83/103 53/84/104
s 19
f 53/84/105 54/83/106 56/85/107 55/86/108
s 20
f 55/86/109 56/85/110 50/87/111 49/88/112
s 21
f 59/89/113 60/90/114 62/91/115 61/92/116
s 22
f 61/92/117 62/91/118 64/93/119 63/94/120
s 23
f 63/94/121 64/93/122 58/95/123 57/96/124
s 24
f 81/97/125 82/98/126 95/99/127 96/100/128
f 65/101/177 66/102/178 82/98/126 81/97/125
f 96/100/128 95/99/127 103/103/201 104/104/202
f 104/104/202 103/103/201 68/105/213 67/106/214
s 25
f 67/107/129 68/108/130 70/109/131 69/110/132
s 26
f 91/111/133 92/112/134 85/113/135 86/114/136
f 86/114/136 85/113/135 79/115/183 80/116/184
f 99/117/193 100/118/194 92/112/134 91/111/133
f 77/119/207 78/120/208 100/118/194 99/117/193
s 27
f 82/121/137 83/122/138 94/123/139 95/124/140
f 66/125/179 72/126/180 83/122/138 82/121/137
f 95/124/140 94/123/139 102/127/199 103/128/200
f 103/128/200 102/127/199 70/109/211 68/108/212
s 28
f 88/129/141 81/130/142 96/131/143 89/132/144
f 71/133/187 65/134/188 81/130/142 88/129/141
f 89/132/144 96/131/143 104/135/203 97/136/204
f 97/136/204 104/135/203 67/107/215 69/110/216
s 29
f 69/137/145 70/138/146 74/139/147 73/140/148
f 93/141/149 94/142/150 83/143/151 84/144/152
f 72/145/153 71/146/154 76/147/155 75/148/156
f 87/149/157 88/150/158 89/151/159 90/152/160
f 84/144/152 83/143/151 72/145/153 75/148/156
f 71/146/154 88/150/158 87/149/157 76/147/155
f 90/152/160 89/151/159 97/153/189 98/154/190
f 101/155/197 102/156/198 94/142/150 93/141/149
f 98/154/190 97/153/189 69/137/145 73/140/148
f 70/138/146 102/156/198 101/155/197 74/139/147
s 30
f 73/157/161 74/158/162 78/159/163 77/160/164
s 31
f 92/161/165 93/162/166 84/163/167 85/164/168
f 85/164/168 84/163/167 75/165/181 79/166/182
f 100/167/195 101/168/196 93/162/166 92/161/165
f 74/158/209 101/168/196 100/167/195 78/159/210
s 32
f 75/165/169 76/169/170 80/170/171 79/166/172
s 33
f 86/171/173 87/172/174 90/173/175 91/174/176
f 76/169/185 87/172/174 86/171/173 80/170/186
f 91/174/176 90/173/175 98/175/191 99/176/192
f 99/176/192 98/175/191 73/177/205 77/178/206
s 34
f 105/179/217 106/180/218 108/181/219 107/182/220
s 35
f 107/182/221 108/181/222 110/183/223 109/184/224
s 36
f 109/184/225 110/183/226 112/185/227 111/186/228
s 37
f 111/187/229 112/188/230 106/189/231 105/190/232
s 38
f 106/180/233 112/185/234 110/183/235 108/181/236
s 39
f 111/186/237 105/179/238 107/182/239 109/184/240

# 82 faces
