# Wavefront Obj file
# 
# verts: 92 uv-s: 134
mtllib mushroom_def.mtl

g pCylinder58
#pivot 0.000000 0.000000 0.000000

v -8.785646 -0.430221 -34.606247
v -8.939068 -0.430221 -34.717716
v -9.128711 -0.430221 -34.717716
v -9.282133 -0.430221 -34.606247
v -9.340729 -0.430221 -34.425888
v -9.282133 -0.430221 -34.245529
v -9.128711 -0.430221 -34.134045
v -8.939068 -0.430221 -34.134045
v -8.785646 -0.430221 -34.245529
v -8.727045 -0.430221 -34.425888
v -8.919639 0.971069 -34.475063
v -8.986891 0.980611 -34.522968
v -9.070007 0.980611 -34.522968
v -9.137254 0.971069 -34.475063
v -9.162939 0.955625 -34.397537
v -9.137254 0.940176 -34.319992
v -9.070007 0.930634 -34.272087
v -8.986891 0.930634 -34.272087
v -8.919640 0.940176 -34.319992
v -8.893957 0.955625 -34.397537
v -9.028446 -0.430221 -34.491096
v -8.884790 0.341535 -34.595470
v -8.973573 0.341535 -34.659973
v -9.083319 0.341535 -34.659973
v -9.172106 0.341535 -34.595470
v -9.206022 0.341535 -34.491096
v -9.172106 0.341535 -34.386719
v -9.083319 0.341535 -34.322208
v -8.973573 0.341535 -34.322208
v -8.884790 0.341535 -34.386719
v -8.850873 0.341535 -34.491096
v -8.658320 1.095892 -34.643784
v -8.887072 1.128360 -34.806770
v -9.169821 1.128360 -34.806770
v -9.398572 1.095892 -34.643784
v -9.485946 1.043357 -34.380062
v -9.398572 0.990817 -34.116325
v -9.169821 0.958348 -33.953331
v -8.887072 0.958348 -33.953331
v -8.658321 0.990817 -34.116325
v -8.570948 1.043357 -34.380062
v -8.478612 1.289258 -34.738400
v -8.818430 1.337494 -34.980530
v -9.238463 1.337494 -34.980530
v -9.578282 1.289258 -34.738400
v -9.708081 1.211215 -34.346630
v -9.578282 1.133169 -33.954845
v -9.238463 1.084931 -33.712704
v -8.818430 1.084931 -33.712704
v -8.478614 1.133169 -33.954845
v -8.348816 1.211215 -34.346630
v -8.289350 1.480528 -34.840500
v -8.746140 1.545366 -35.165974
v -9.310753 1.545366 -35.165974
v -9.767540 1.480528 -34.840500
v -9.942014 1.375621 -34.313885
v -9.767540 1.270708 -33.787239
v -9.310753 1.205869 -33.461754
v -8.746140 1.205869 -33.461754
v -8.289357 1.270708 -33.787239
v -8.114882 1.375621 -34.313885
v -8.440732 1.651608 -34.694271
v -8.803964 1.703168 -34.953087
v -9.252932 1.703168 -34.953087
v -9.616160 1.651608 -34.694271
v -9.754896 1.568189 -34.275520
v -9.616160 1.484766 -33.856747
v -9.252932 1.433204 -33.597919
v -8.803964 1.433204 -33.597919
v -8.440737 1.484766 -33.856747
v -8.301999 1.568189 -34.275520
v -8.669940 1.740240 -34.506817
v -8.891512 1.771691 -34.664692
v -9.165382 1.771691 -34.664692
v -9.386953 1.740240 -34.506817
v -9.471582 1.689354 -34.251373
v -9.386953 1.638466 -33.995926
v -9.165382 1.607014 -33.838039
v -8.891512 1.607014 -33.838039
v -8.669943 1.638466 -33.995926
v -8.585313 1.689354 -34.251373
v -8.904529 1.781910 -34.324730
v -8.981115 1.792781 -34.379295
v -9.028447 1.811176 -34.227104
v -9.075779 1.792781 -34.379295
v -9.152365 1.781910 -34.324730
v -9.181617 1.764321 -34.236439
v -9.152365 1.746731 -34.148136
v -9.075779 1.735860 -34.093563
v -8.981115 1.735860 -34.093563
v -8.904530 1.746731 -34.148136
v -8.875278 1.764321 -34.236439
# 92 positions

vt 0.228819 0.534253
vt 0.228819 0.516668
vt 0.298910 0.554017
vt 0.297864 0.567075
vt 0.203112 0.731986
vt 0.173196 0.731986
vt 0.176825 0.661895
vt 0.199482 0.661895
vt 0.085572 0.805262
vt 0.085572 0.787678
vt 0.154617 0.754856
vt 0.155664 0.767914
vt 0.085572 0.759226
vt 0.152923 0.733723
vt 0.085572 0.730774
vt 0.151229 0.712583
vt 0.085572 0.713187
vt 0.150182 0.699526
vt 0.229458 0.746538
vt 0.259374 0.746538
vt 0.255744 0.811148
vt 0.233086 0.811148
vt 0.228819 0.608743
vt 0.228819 0.591157
vt 0.294476 0.609348
vt 0.293429 0.622405
vt 0.228819 0.562705
vt 0.296170 0.588208
vt 0.302765 0.558726
vt 0.333151 0.516904
vt 0.364541 0.583091
vt 0.302765 0.610423
vt 0.333151 0.652245
vt 0.382316 0.668218
vt 0.431481 0.652245
vt 0.461872 0.610423
vt 0.461872 0.558726
vt 0.431481 0.516904
vt 0.382316 0.500929
vt 0.236175 0.216255
vt 0.251050 0.237132
vt 0.209562 0.250034
vt 0.251050 0.262937
vt 0.236175 0.283814
vt 0.212106 0.291788
vt 0.188037 0.283814
vt 0.173160 0.262937
vt 0.173160 0.237132
vt 0.188037 0.216255
vt 0.212106 0.208281
vt 0.144176 0.531315
vt 0.144176 0.500929
vt 0.212518 0.816629
vt 0.160822 0.816629
vt 0.000929 0.821002
vt 0.000929 0.790616
vt 0.000929 0.741451
vt 0.000929 0.692286
vt 0.000929 0.661895
vt 0.217084 0.661895
vt 0.268780 0.661895
vt 0.144176 0.660036
vt 0.144176 0.629645
vt 0.144176 0.580480
vt 0.654068 0.720305
vt 0.641010 0.738637
vt 0.563647 0.711427
vt 0.608075 0.649070
vt 0.641010 0.761295
vt 0.563647 0.788504
vt 0.654068 0.779626
vt 0.608075 0.850861
vt 0.675202 0.786628
vt 0.679965 0.874679
vt 0.696341 0.779626
vt 0.751860 0.850861
vt 0.709399 0.761295
vt 0.796291 0.788504
vt 0.709399 0.738637
vt 0.796291 0.711427
vt 0.696341 0.720305
vt 0.751860 0.649070
vt 0.675202 0.713304
vt 0.679965 0.625252
vt 0.516278 0.692715
vt 0.582285 0.600082
vt 0.516278 0.807216
vt 0.582285 0.899849
vt 0.689079 0.935232
vt 0.795878 0.899849
vt 0.861886 0.807216
vt 0.861886 0.692715
vt 0.795878 0.600082
vt 0.689079 0.564700
vt 0.465727 0.673009
vt 0.554451 0.548489
vt 0.465727 0.826922
vt 0.554451 0.951441
vt 0.698006 0.999002
vt 0.841569 0.951441
vt 0.930295 0.826922
vt 0.930295 0.673009
vt 0.841569 0.548491
vt 0.698006 0.500929
vt 0.376773 0.048558
vt 0.465497 0.173078
vt 0.407465 0.188841
vt 0.336911 0.089824
vt 0.465497 0.326990
vt 0.407465 0.311228
vt 0.376773 0.451510
vt 0.336911 0.410244
vt 0.233219 0.499071
vt 0.222760 0.448063
vt 0.089656 0.451510
vt 0.108604 0.410244
vt 0.000929 0.326990
vt 0.038047 0.311228
vt 0.000929 0.173078
vt 0.038047 0.188841
vt 0.089656 0.048560
vt 0.108604 0.089826
vt 0.233219 0.000998
vt 0.222760 0.052006
vt 0.328848 0.212706
vt 0.285812 0.152306
vt 0.328848 0.287363
vt 0.285812 0.347762
vt 0.216179 0.370832
vt 0.146543 0.347762
vt 0.103504 0.287363
vt 0.103504 0.212706
vt 0.146543 0.152307
vt 0.216179 0.129237
# 134 texture coordinates

vn 0.584486 0.134839 -0.800121
vn 0.584486 0.134839 -0.800121
vn 0.470904 -0.450856 -0.758273
vn 0.470904 -0.450856 -0.758273
vn 0.000000 0.142446 -0.989803
vn 0.000000 0.142446 -0.989803
vn 0.000000 -0.425766 -0.904833
vn 0.000000 -0.425766 -0.904833
vn -0.584152 0.138910 -0.799669
vn -0.584152 0.138910 -0.799669
vn -0.470907 -0.450857 -0.758271
vn -0.470907 -0.450857 -0.758271
vn -0.944616 0.124852 -0.303500
vn -0.944616 0.124852 -0.303500
vn -0.773094 -0.518524 -0.365321
vn -0.773094 -0.518524 -0.365321
vn -0.945219 0.104554 0.309239
vn -0.945219 0.104554 0.309239
vn -0.784139 -0.605628 0.135425
vn -0.784139 -0.605628 0.135425
vn -0.585135 0.085884 0.806375
vn -0.585135 0.085884 0.806375
vn -0.488559 -0.678315 0.548816
vn -0.488559 -0.678315 0.548816
vn 0.000000 0.077058 0.997027
vn 0.000000 0.077058 0.997027
vn 0.000000 -0.706453 0.707760
vn 0.000000 -0.706453 0.707760
vn 0.585334 0.081957 0.806639
vn 0.585334 0.081957 0.806639
vn 0.488559 -0.678315 0.548817
vn 0.488559 -0.678315 0.548817
vn 0.945842 0.098107 0.309447
vn 0.945842 0.098107 0.309447
vn 0.784141 -0.605628 0.135418
vn 0.784141 -0.605628 0.135418
vn 0.945377 0.118310 -0.303751
vn 0.945377 0.118310 -0.303751
vn 0.773097 -0.518527 -0.365310
vn 0.773097 -0.518527 -0.365310
vn 0.000000 -1.000000 0.000000
vn 0.000000 -1.000000 0.000000
vn 0.000000 -1.000000 0.000000
vn 0.000000 -1.000000 0.000000
vn 0.000000 -1.000000 0.000000
vn 0.000000 -1.000000 0.000000
vn 0.000000 -1.000000 0.000000
vn 0.000000 -1.000000 0.000000
vn 0.000000 -1.000000 0.000000
vn 0.000000 -1.000000 0.000000
vn 0.000000 -1.000000 0.000000
vn 0.223607 0.974265 0.028431
vn 0.085410 0.993881 -0.070044
vn 0.000000 0.980732 0.195359
vn -0.085410 0.993881 -0.070044
vn -0.223607 0.974265 0.028429
vn -0.276394 0.942526 0.187755
vn -0.223610 0.910788 0.347079
vn -0.085412 0.891173 0.445550
vn 0.085413 0.891173 0.445550
vn 0.223610 0.910788 0.347079
vn 0.276395 0.942525 0.187757
vn 0.585585 0.086484 -0.805985
vn 0.585585 0.086484 -0.805985
vn 0.000000 0.074612 -0.997213
vn 0.000000 0.074612 -0.997213
vn -0.585138 0.094672 -0.805389
vn -0.585138 0.094672 -0.805389
vn -0.941887 0.138550 -0.306027
vn -0.941887 0.138550 -0.306027
vn -0.933981 0.188667 0.303454
vn -0.933981 0.188667 0.303454
vn -0.572643 0.225822 0.788089
vn -0.572643 0.225822 0.788089
vn 0.000000 0.236874 0.971540
vn 0.000000 0.236874 0.971540
vn 0.573681 0.218136 0.789498
vn 0.573681 0.218136 0.789498
vn 0.936222 0.175922 0.304204
vn 0.936222 0.175922 0.304204
vn 0.943535 0.125489 -0.306585
vn 0.943535 0.125489 -0.306585
vn 0.164326 -0.897428 -0.409414
vn 0.164326 -0.897428 -0.409414
vn 0.000000 -0.886997 -0.461775
vn 0.000000 -0.886997 -0.461775
vn -0.164329 -0.897428 -0.409414
vn -0.164329 -0.897428 -0.409414
vn -0.265901 -0.924740 -0.272311
vn -0.265901 -0.924740 -0.272311
vn -0.265908 -0.958495 -0.102859
vn -0.265908 -0.958495 -0.102859
vn -0.164328 -0.985811 0.034262
vn -0.164328 -0.985811 0.034262
vn 0.000000 -0.996242 0.086618
vn 0.000000 -0.996242 0.086618
vn 0.164326 -0.985811 0.034262
vn 0.164326 -0.985811 0.034262
vn 0.265907 -0.958495 -0.102861
vn 0.265907 -0.958495 -0.102861
vn 0.265901 -0.924741 -0.272307
vn 0.265901 -0.924741 -0.272307
vn 0.369997 -0.662539 -0.651264
vn 0.369997 -0.662539 -0.651264
vn 0.369997 -0.662539 -0.651264
vn 0.369997 -0.662539 -0.651264
vn 0.000000 -0.639057 -0.769159
vn 0.000000 -0.639057 -0.769159
vn 0.000000 -0.639057 -0.769159
vn 0.000000 -0.639057 -0.769159
vn -0.369995 -0.662540 -0.651263
vn -0.369995 -0.662540 -0.651263
vn -0.369995 -0.662540 -0.651263
vn -0.369995 -0.662540 -0.651263
vn -0.598679 -0.724031 -0.342582
vn -0.598679 -0.724031 -0.342582
vn -0.598679 -0.724031 -0.342582
vn -0.598679 -0.724031 -0.342582
vn -0.598691 -0.800031 0.038971
vn -0.598691 -0.800031 0.038971
vn -0.598691 -0.800031 0.038971
vn -0.598691 -0.800031 0.038971
vn -0.370019 -0.861520 0.347663
vn -0.370019 -0.861520 0.347663
vn -0.370019 -0.861520 0.347663
vn -0.370019 -0.861520 0.347663
vn 0.000000 -0.885014 0.465565
vn 0.000000 -0.885014 0.465565
vn 0.000000 -0.885014 0.465565
vn 0.000000 -0.885014 0.465565
vn 0.370021 -0.861519 0.347664
vn 0.370021 -0.861519 0.347664
vn 0.370021 -0.861519 0.347664
vn 0.370021 -0.861519 0.347664
vn 0.598697 -0.800027 0.038973
vn 0.598697 -0.800027 0.038973
vn 0.598697 -0.800027 0.038973
vn 0.598697 -0.800027 0.038973
vn 0.598685 -0.724027 -0.342579
vn 0.598685 -0.724027 -0.342579
vn 0.598685 -0.724027 -0.342579
vn 0.598685 -0.724027 -0.342579
vn 0.353708 -0.688160 -0.633504
vn 0.353708 -0.688160 -0.633504
vn 0.353708 -0.688160 -0.633504
vn 0.353708 -0.688160 -0.633504
vn 0.000000 -0.665704 -0.746216
vn 0.000000 -0.665704 -0.746216
vn 0.000000 -0.665704 -0.746216
vn 0.000000 -0.665704 -0.746216
vn -0.353710 -0.688157 -0.633505
vn -0.353710 -0.688157 -0.633505
vn -0.353710 -0.688157 -0.633505
vn -0.353710 -0.688157 -0.633505
vn -0.572319 -0.746945 -0.338414
vn -0.572319 -0.746945 -0.338414
vn -0.572319 -0.746945 -0.338414
vn -0.572319 -0.746945 -0.338414
vn -0.572320 -0.819608 0.026335
vn -0.572320 -0.819608 0.026335
vn -0.572320 -0.819608 0.026335
vn -0.572320 -0.819608 0.026335
vn -0.353715 -0.878394 0.321418
vn -0.353715 -0.878394 0.321418
vn -0.353715 -0.878394 0.321418
vn -0.353715 -0.878394 0.321418
vn 0.000000 -0.900847 0.434137
vn 0.000000 -0.900847 0.434137
vn 0.000000 -0.900847 0.434137
vn 0.000000 -0.900847 0.434137
vn 0.353717 -0.878394 0.321416
vn 0.353717 -0.878394 0.321416
vn 0.353717 -0.878394 0.321416
vn 0.353717 -0.878394 0.321416
vn 0.572319 -0.819608 0.026335
vn 0.572319 -0.819608 0.026335
vn 0.572319 -0.819608 0.026335
vn 0.572319 -0.819608 0.026335
vn 0.572315 -0.746950 -0.338409
vn 0.572315 -0.746950 -0.338409
vn 0.572315 -0.746950 -0.338409
vn 0.572315 -0.746950 -0.338409
vn 0.435521 0.775724 -0.456699
vn 0.435521 0.775724 -0.456699
vn 0.347336 0.884581 -0.311247
vn 0.347336 0.884581 -0.311247
vn 0.000000 0.803362 -0.595491
vn 0.000000 0.803362 -0.595491
vn 0.000000 0.906627 -0.421933
vn 0.000000 0.906627 -0.421933
vn -0.435525 0.775721 -0.456700
vn -0.435525 0.775721 -0.456700
vn -0.347338 0.884579 -0.311248
vn -0.347338 0.884579 -0.311248
vn -0.704692 0.703344 -0.093359
vn -0.704692 0.703344 -0.093359
vn -0.562003 0.826856 -0.021479
vn -0.562003 0.826856 -0.021479
vn -0.704698 0.613875 0.355750
vn -0.704698 0.613875 0.355750
vn -0.562008 0.755503 0.336692
vn -0.562008 0.755503 0.336692
vn -0.435533 0.541495 0.719093
vn -0.435533 0.541495 0.719093
vn -0.347346 0.697779 0.626462
vn -0.347346 0.697779 0.626462
vn 0.000000 0.513843 0.857885
vn 0.000000 0.513843 0.857885
vn 0.000000 0.675728 0.737151
vn 0.000000 0.675728 0.737151
vn 0.435535 0.541497 0.719090
vn 0.435535 0.541497 0.719090
vn 0.347347 0.697780 0.626461
vn 0.347347 0.697780 0.626461
vn 0.704697 0.613874 0.355752
vn 0.704697 0.613874 0.355752
vn 0.562008 0.755503 0.336694
vn 0.562008 0.755503 0.336694
vn 0.704692 0.703346 -0.093352
vn 0.704692 0.703346 -0.093352
vn 0.562003 0.826857 -0.021474
vn 0.562003 0.826857 -0.021474
vn 0.201636 0.975439 -0.088666
vn 0.201636 0.975439 -0.088666
vn 0.000000 0.988239 -0.152917
vn 0.000000 0.988239 -0.152917
vn -0.201637 0.975439 -0.088666
vn -0.201637 0.975439 -0.088666
vn -0.326254 0.941929 0.079550
vn -0.326254 0.941929 0.079550
vn -0.326258 0.900507 0.287476
vn -0.326258 0.900507 0.287476
vn -0.201645 0.866996 0.455694
vn -0.201645 0.866996 0.455694
vn 0.000000 0.854196 0.519951
vn 0.000000 0.854196 0.519951
vn 0.201647 0.866996 0.455694
vn 0.201647 0.866996 0.455694
vn 0.326259 0.900507 0.287477
vn 0.326259 0.900507 0.287477
vn 0.326255 0.941928 0.079553
vn 0.326255 0.941928 0.079553
# 242 normals

usemtl initialShadingGroup
s 1
f 22/1/1 23/2/2 12/3/3 11/4/4
f 1/51/63 2/52/64 23/2/2 22/1/1
f 11/65/4 12/66/3 33/67/83 32/68/84
s 2
f 23/5/5 24/6/6 13/7/7 12/8/8
f 2/53/65 3/54/66 24/6/6 23/5/5
f 12/66/8 13/69/7 34/70/85 33/67/86
s 3
f 24/9/9 25/10/10 14/11/11 13/12/12
f 3/55/67 4/56/68 25/10/10 24/9/9
f 13/69/12 14/71/11 35/72/87 34/70/88
s 4
f 25/10/13 26/13/14 15/14/15 14/11/16
f 4/56/69 5/57/70 26/13/14 25/10/13
f 14/71/16 15/73/15 36/74/89 35/72/90
s 5
f 26/13/17 27/15/18 16/16/19 15/14/20
f 5/57/71 6/58/72 27/15/18 26/13/17
f 15/73/20 16/75/19 37/76/91 36/74/92
s 6
f 27/15/21 28/17/22 17/18/23 16/16/24
f 6/58/73 7/59/74 28/17/22 27/15/21
f 16/75/24 17/77/23 38/78/93 37/76/94
s 7
f 28/19/25 29/20/26 18/21/27 17/22/28
f 7/60/75 8/61/76 29/20/26 28/19/25
f 17/77/28 18/79/27 39/80/95 38/78/96
s 8
f 29/23/29 30/24/30 19/25/31 18/26/32
f 8/62/77 9/63/78 30/24/30 29/23/29
f 18/79/32 19/81/31 40/82/97 39/80/98
s 9
f 30/24/33 31/27/34 20/28/35 19/25/36
f 9/63/79 10/64/80 31/27/34 30/24/33
f 19/81/36 20/83/35 41/84/99 40/82/100
s 10
f 31/27/37 22/1/38 11/4/39 20/28/40
f 10/64/81 1/51/82 22/1/38 31/27/37
f 20/83/40 11/65/39 32/68/101 41/84/102
s 11
f 2/29/41 1/30/42 21/31/43
f 3/32/44 2/29/41 21/31/43
f 4/33/45 3/32/44 21/31/43
f 5/34/46 4/33/45 21/31/43
f 6/35/47 5/34/46 21/31/43
f 7/36/48 6/35/47 21/31/43
f 8/37/49 7/36/48 21/31/43
f 9/38/50 8/37/49 21/31/43
f 10/39/51 9/38/50 21/31/43
f 1/30/42 10/39/51 21/31/43
s 12
f 82/40/52 83/41/53 84/42/54
f 83/41/53 85/43/55 84/42/54
f 85/43/55 86/44/56 84/42/54
f 86/44/56 87/45/57 84/42/54
f 87/45/57 88/46/58 84/42/54
f 88/46/58 89/47/59 84/42/54
f 89/47/59 90/48/60 84/42/54
f 90/48/60 91/49/61 84/42/54
f 91/49/61 92/50/62 84/42/54
f 92/50/62 82/40/52 84/42/54
f 52/105/183 53/106/184 63/107/185 62/108/186
f 53/106/187 54/109/188 64/110/189 63/107/190
f 54/109/191 55/111/192 65/112/193 64/110/194
f 55/111/195 56/113/196 66/114/197 65/112/198
f 56/113/199 57/115/200 67/116/201 66/114/202
f 57/115/203 58/117/204 68/118/205 67/116/206
f 58/117/207 59/119/208 69/120/209 68/118/210
f 59/119/211 60/121/212 70/122/213 69/120/214
f 60/121/215 61/123/216 71/124/217 70/122/218
f 61/123/219 52/105/220 62/108/221 71/124/222
f 62/108/186 63/107/185 73/125/223 72/126/224
f 63/107/190 64/110/189 74/127/225 73/125/226
f 64/110/194 65/112/193 75/128/227 74/127/228
f 65/112/198 66/114/197 76/129/229 75/128/230
f 66/114/202 67/116/201 77/130/231 76/129/232
f 67/116/206 68/118/205 78/131/233 77/130/234
f 68/118/210 69/120/209 79/132/235 78/131/236
f 69/120/214 70/122/213 80/133/237 79/132/238
f 70/122/218 71/124/217 81/134/239 80/133/240
f 71/124/222 62/108/221 72/126/241 81/134/242
f 72/126/224 73/125/223 83/41/53 82/40/52
f 73/125/226 74/127/225 85/43/55 83/41/53
f 74/127/228 75/128/227 86/44/56 85/43/55
f 75/128/230 76/129/229 87/45/57 86/44/56
f 76/129/232 77/130/231 88/46/58 87/45/57
f 77/130/234 78/131/233 89/47/59 88/46/58
f 78/131/236 79/132/235 90/48/60 89/47/59
f 79/132/238 80/133/237 91/49/61 90/48/60
f 80/133/240 81/134/239 92/50/62 91/49/61
f 81/134/242 72/126/241 82/40/52 92/50/62
s 13
f 32/68/103 33/67/104 43/85/105 42/86/106
s 14
f 33/67/107 34/70/108 44/87/109 43/85/110
s 15
f 34/70/111 35/72/112 45/88/113 44/87/114
s 16
f 35/72/115 36/74/116 46/89/117 45/88/118
s 17
f 36/74/119 37/76/120 47/90/121 46/89/122
s 18
f 37/76/123 38/78/124 48/91/125 47/90/126
s 19
f 38/78/127 39/80/128 49/92/129 48/91/130
s 20
f 39/80/131 40/82/132 50/93/133 49/92/134
s 21
f 40/82/135 41/84/136 51/94/137 50/93/138
s 22
f 41/84/139 32/68/140 42/86/141 51/94/142
s 23
f 42/86/143 43/85/144 53/95/145 52/96/146
s 24
f 43/85/147 44/87/148 54/97/149 53/95/150
s 25
f 44/87/151 45/88/152 55/98/153 54/97/154
s 26
f 45/88/155 46/89/156 56/99/157 55/98/158
s 27
f 46/89/159 47/90/160 57/100/161 56/99/162
s 28
f 47/90/163 48/91/164 58/101/165 57/100/166
s 29
f 48/91/167 49/92/168 59/102/169 58/101/170
s 30
f 49/92/171 50/93/172 60/103/173 59/102/174
s 31
f 50/93/175 51/94/176 61/104/177 60/103/178
s 32
f 51/94/179 42/86/180 52/96/181 61/104/182

# 100 faces
