# Wavefront Obj file
# 
# verts: 42 uv-s: 78
mtllib gem_def.mtl

g pSphere3
#pivot 0.000000 0.000000 0.000000

v -10.480587 -0.283782 -34.668728
v -10.727165 -0.283782 -34.799026
v -10.973743 -0.283782 -34.668728
v -11.075879 -0.283782 -34.354164
v -10.973743 -0.283782 -34.039600
v -10.727165 -0.283782 -33.909302
v -10.480587 -0.283782 -34.039600
v -10.378450 -0.283782 -34.354164
v -10.300079 -0.163841 -34.899002
v -10.727165 -0.163841 -35.124683
v -11.154250 -0.163841 -34.899002
v -11.331155 -0.163841 -34.354164
v -11.154250 -0.163841 -33.809319
v -10.727165 -0.163841 -33.583641
v -10.300079 -0.163841 -33.809319
v -10.123175 -0.163841 -34.354164
v -10.234010 0.000000 -34.983288
v -10.727165 0.000000 -35.243885
v -11.220321 0.000000 -34.983288
v -11.424592 0.000000 -34.354164
v -11.220321 0.000000 -33.725037
v -10.727165 0.000000 -33.464439
v -10.234010 0.000000 -33.725037
v -10.029738 0.000000 -34.354164
v -10.300079 0.163841 -34.899002
v -10.727165 0.163841 -35.124683
v -11.154250 0.163841 -34.899002
v -11.331155 0.163841 -34.354164
v -11.154250 0.163841 -33.809319
v -10.727165 0.163841 -33.583641
v -10.300079 0.163841 -33.809319
v -10.123175 0.163841 -34.354164
v -10.480587 0.283782 -34.668728
v -10.727165 0.283782 -34.799026
v -10.973743 0.283782 -34.668728
v -11.075879 0.283782 -34.354164
v -10.973743 0.283782 -34.039600
v -10.727165 0.283782 -33.909302
v -10.480587 0.283782 -34.039600
v -10.378450 0.283782 -34.354164
v -10.727165 -0.327683 -34.354164
v -10.727165 0.327683 -34.354164
# 42 positions

vt 0.235114 0.125052
vt 0.149421 0.089557
vt 0.149421 0.000842
vt 0.297845 0.062321
vt 0.063729 0.125052
vt 0.000998 0.062321
vt 0.388970 0.000842
vt 0.474663 0.000842
vt 0.474663 0.089557
vt 0.326239 0.089557
vt 0.560355 0.000842
vt 0.623086 0.089557
vt 0.063729 0.296436
vt 0.149421 0.331931
vt 0.149421 0.420646
vt 0.000998 0.359167
vt 0.235114 0.296436
vt 0.297845 0.359167
vt 0.735881 0.000842
vt 0.821574 0.000842
vt 0.821574 0.089557
vt 0.673150 0.089557
vt 0.907266 0.000842
vt 0.969997 0.089557
vt 0.698015 0.445603
vt 0.698015 0.594027
vt 0.576828 0.594027
vt 0.576828 0.422642
vt 0.698015 0.742450
vt 0.576828 0.765411
vt 0.474663 0.210744
vt 0.303278 0.210744
vt 0.646047 0.210744
vt 0.209127 0.742450
vt 0.209127 0.594027
vt 0.330314 0.594027
vt 0.330314 0.765411
vt 0.209127 0.445603
vt 0.330314 0.422642
vt 0.821574 0.210744
vt 0.650189 0.210744
vt 0.992958 0.210744
vt 0.455641 0.594027
vt 0.455641 0.445603
vt 0.455641 0.742450
vt 0.474663 0.331931
vt 0.326239 0.331931
vt 0.623086 0.331931
vt 0.451501 0.594027
vt 0.451501 0.742450
vt 0.451501 0.445603
vt 0.821574 0.331931
vt 0.673150 0.331931
vt 0.969997 0.331931
vt 0.999002 0.780968
vt 0.850578 0.842447
vt 0.850578 0.753732
vt 0.936271 0.718237
vt 0.702155 0.780968
vt 0.764886 0.718237
vt 0.474663 0.420646
vt 0.388970 0.420646
vt 0.560355 0.420646
vt 0.702155 0.484121
vt 0.850578 0.422642
vt 0.850578 0.511357
vt 0.764886 0.546852
vt 0.999002 0.484121
vt 0.936271 0.546852
vt 0.821574 0.420646
vt 0.735881 0.420646
vt 0.907266 0.420646
vt 0.149421 0.210744
vt 0.028234 0.210744
vt 0.270609 0.210744
vt 0.850578 0.632545
vt 0.729391 0.632545
vt 0.971766 0.632545
# 78 texture coordinates

vn 0.179656 -0.923111 -0.339985
vn 0.179656 -0.923111 -0.339985
vn 0.179656 -0.923111 -0.339985
vn 0.179656 -0.923111 -0.339985
vn -0.179657 -0.923111 -0.339985
vn -0.179657 -0.923111 -0.339985
vn -0.179657 -0.923111 -0.339985
vn -0.179657 -0.923111 -0.339985
vn -0.421253 -0.896570 -0.136777
vn -0.421253 -0.896570 -0.136777
vn -0.421253 -0.896570 -0.136777
vn -0.421253 -0.896570 -0.136777
vn -0.421252 -0.896571 0.136776
vn -0.421252 -0.896571 0.136776
vn -0.421252 -0.896571 0.136776
vn -0.421252 -0.896571 0.136776
vn -0.179652 -0.923113 0.339981
vn -0.179652 -0.923113 0.339981
vn -0.179652 -0.923113 0.339981
vn -0.179652 -0.923113 0.339981
vn 0.179652 -0.923113 0.339981
vn 0.179652 -0.923113 0.339981
vn 0.179652 -0.923113 0.339981
vn 0.179652 -0.923113 0.339981
vn 0.421251 -0.896571 0.136776
vn 0.421251 -0.896571 0.136776
vn 0.421251 -0.896571 0.136776
vn 0.421251 -0.896571 0.136776
vn 0.421252 -0.896570 -0.136777
vn 0.421252 -0.896570 -0.136777
vn 0.421252 -0.896570 -0.136777
vn 0.421252 -0.896570 -0.136777
vn 0.392934 -0.540991 -0.743594
vn 0.392934 -0.540991 -0.743594
vn 0.392934 -0.540991 -0.743594
vn 0.392934 -0.540991 -0.743594
vn -0.392934 -0.540992 -0.743593
vn -0.392934 -0.540992 -0.743593
vn -0.392934 -0.540992 -0.743593
vn -0.392934 -0.540992 -0.743593
vn -0.836050 -0.476793 -0.271459
vn -0.836050 -0.476793 -0.271459
vn -0.836050 -0.476793 -0.271459
vn -0.836050 -0.476793 -0.271459
vn -0.836052 -0.476790 0.271457
vn -0.836052 -0.476790 0.271457
vn -0.836052 -0.476790 0.271457
vn -0.836052 -0.476790 0.271457
vn -0.392933 -0.540986 0.743598
vn -0.392933 -0.540986 0.743598
vn -0.392933 -0.540986 0.743598
vn -0.392933 -0.540986 0.743598
vn 0.392933 -0.540985 0.743599
vn 0.392933 -0.540985 0.743599
vn 0.392933 -0.540985 0.743599
vn 0.392933 -0.540985 0.743599
vn 0.836054 -0.476787 0.271457
vn 0.836054 -0.476787 0.271457
vn 0.836054 -0.476787 0.271457
vn 0.836054 -0.476787 0.271457
vn 0.836051 -0.476789 -0.271459
vn 0.836051 -0.476789 -0.271459
vn 0.836051 -0.476789 -0.271459
vn 0.836051 -0.476789 -0.271459
vn 0.392934 0.540991 -0.743594
vn 0.392934 0.540991 -0.743594
vn 0.392934 0.540991 -0.743594
vn 0.392934 0.540991 -0.743594
vn -0.392934 0.540992 -0.743593
vn -0.392934 0.540992 -0.743593
vn -0.392934 0.540992 -0.743593
vn -0.392934 0.540992 -0.743593
vn -0.836050 0.476793 -0.271459
vn -0.836050 0.476793 -0.271459
vn -0.836050 0.476793 -0.271459
vn -0.836050 0.476793 -0.271459
vn -0.836052 0.476790 0.271457
vn -0.836052 0.476790 0.271457
vn -0.836052 0.476790 0.271457
vn -0.836052 0.476790 0.271457
vn -0.392933 0.540986 0.743598
vn -0.392933 0.540986 0.743598
vn -0.392933 0.540986 0.743598
vn -0.392933 0.540986 0.743598
vn 0.392933 0.540985 0.743599
vn 0.392933 0.540985 0.743599
vn 0.392933 0.540985 0.743599
vn 0.392933 0.540985 0.743599
vn 0.836054 0.476787 0.271457
vn 0.836054 0.476787 0.271457
vn 0.836054 0.476787 0.271457
vn 0.836054 0.476787 0.271457
vn 0.836051 0.476789 -0.271459
vn 0.836051 0.476789 -0.271459
vn 0.836051 0.476789 -0.271459
vn 0.836051 0.476789 -0.271459
vn 0.179656 0.923111 -0.339985
vn 0.179656 0.923111 -0.339985
vn 0.179656 0.923111 -0.339985
vn 0.179656 0.923111 -0.339985
vn -0.179657 0.923111 -0.339985
vn -0.179657 0.923111 -0.339985
vn -0.179657 0.923111 -0.339985
vn -0.179657 0.923111 -0.339985
vn -0.421253 0.896570 -0.136777
vn -0.421253 0.896570 -0.136777
vn -0.421253 0.896570 -0.136777
vn -0.421253 0.896570 -0.136777
vn -0.421252 0.896571 0.136776
vn -0.421252 0.896571 0.136776
vn -0.421252 0.896571 0.136776
vn -0.421252 0.896571 0.136776
vn -0.179652 0.923113 0.339981
vn -0.179652 0.923113 0.339981
vn -0.179652 0.923113 0.339981
vn -0.179652 0.923113 0.339981
vn 0.179652 0.923113 0.339981
vn 0.179652 0.923113 0.339981
vn 0.179652 0.923113 0.339981
vn 0.179652 0.923113 0.339981
vn 0.421251 0.896571 0.136776
vn 0.421251 0.896571 0.136776
vn 0.421251 0.896571 0.136776
vn 0.421251 0.896571 0.136776
vn 0.421252 0.896570 -0.136777
vn 0.421252 0.896570 -0.136777
vn 0.421252 0.896570 -0.136777
vn 0.421252 0.896570 -0.136777
vn 0.051826 -0.993829 -0.098075
vn 0.051826 -0.993829 -0.098075
vn 0.051826 -0.993829 -0.098075
vn -0.051826 -0.993829 -0.098075
vn -0.051826 -0.993829 -0.098075
vn -0.051826 -0.993829 -0.098075
vn -0.124805 -0.991353 -0.040523
vn -0.124805 -0.991353 -0.040523
vn -0.124805 -0.991353 -0.040523
vn -0.124805 -0.991353 0.040523
vn -0.124805 -0.991353 0.040523
vn -0.124805 -0.991353 0.040523
vn -0.051826 -0.993829 0.098075
vn -0.051826 -0.993829 0.098075
vn -0.051826 -0.993829 0.098075
vn 0.051826 -0.993829 0.098075
vn 0.051826 -0.993829 0.098075
vn 0.051826 -0.993829 0.098075
vn 0.124805 -0.991353 0.040523
vn 0.124805 -0.991353 0.040523
vn 0.124805 -0.991353 0.040523
vn 0.124805 -0.991353 -0.040523
vn 0.124805 -0.991353 -0.040523
vn 0.124805 -0.991353 -0.040523
vn 0.051826 0.993829 -0.098075
vn 0.051826 0.993829 -0.098075
vn 0.051826 0.993829 -0.098075
vn -0.051826 0.993829 -0.098075
vn -0.051826 0.993829 -0.098075
vn -0.051826 0.993829 -0.098075
vn -0.124805 0.991353 -0.040523
vn -0.124805 0.991353 -0.040523
vn -0.124805 0.991353 -0.040523
vn -0.124805 0.991353 0.040523
vn -0.124805 0.991353 0.040523
vn -0.124805 0.991353 0.040523
vn -0.051826 0.993829 0.098075
vn -0.051826 0.993829 0.098075
vn -0.051826 0.993829 0.098075
vn 0.051826 0.993829 0.098075
vn 0.051826 0.993829 0.098075
vn 0.051826 0.993829 0.098075
vn 0.124805 0.991353 0.040523
vn 0.124805 0.991353 0.040523
vn 0.124805 0.991353 0.040523
vn 0.124805 0.991353 -0.040523
vn 0.124805 0.991353 -0.040523
vn 0.124805 0.991353 -0.040523
# 176 normals

usemtl initialShadingGroup
s 1
f 1/1/1 2/2/2 10/3/3 9/4/4
s 2
f 2/2/5 3/5/6 11/6/7 10/3/8
s 3
f 3/7/9 4/8/10 12/9/11 11/10/12
s 4
f 4/8/13 5/11/14 13/12/15 12/9/16
s 5
f 5/13/17 6/14/18 14/15/19 13/16/20
s 6
f 6/14/21 7/17/22 15/18/23 14/15/24
s 7
f 7/19/25 8/20/26 16/21/27 15/22/28
s 8
f 8/20/29 1/23/30 9/24/31 16/21/32
s 9
f 9/25/33 10/26/34 18/27/35 17/28/36
s 10
f 10/26/37 11/29/38 19/30/39 18/27/40
s 11
f 11/10/41 12/9/42 20/31/43 19/32/44
s 12
f 12/9/45 13/12/46 21/33/47 20/31/48
s 13
f 13/34/49 14/35/50 22/36/51 21/37/52
s 14
f 14/35/53 15/38/54 23/39/55 22/36/56
s 15
f 15/22/57 16/21/58 24/40/59 23/41/60
s 16
f 16/21/61 9/24/62 17/42/63 24/40/64
s 17
f 17/28/65 18/27/66 26/43/67 25/44/68
s 18
f 18/27/69 19/30/70 27/45/71 26/43/72
s 19
f 19/32/73 20/31/74 28/46/75 27/47/76
s 20
f 20/31/77 21/33/78 29/48/79 28/46/80
s 21
f 21/37/81 22/36/82 30/49/83 29/50/84
s 22
f 22/36/85 23/39/86 31/51/87 30/49/88
s 23
f 23/41/89 24/40/90 32/52/91 31/53/92
s 24
f 24/40/93 17/42/94 25/54/95 32/52/96
s 25
f 25/55/97 26/56/98 34/57/99 33/58/100
s 26
f 26/56/101 27/59/102 35/60/103 34/57/104
s 27
f 27/47/105 28/46/106 36/61/107 35/62/108
s 28
f 28/46/109 29/48/110 37/63/111 36/61/112
s 29
f 29/64/113 30/65/114 38/66/115 37/67/116
s 30
f 30/65/117 31/68/118 39/69/119 38/66/120
s 31
f 31/53/121 32/52/122 40/70/123 39/71/124
s 32
f 32/52/125 25/54/126 33/72/127 40/70/128
s 33
f 2/2/129 1/1/130 41/73/131
s 34
f 3/5/132 2/2/133 41/73/134
s 35
f 4/74/135 3/5/136 41/73/137
s 36
f 5/13/138 4/74/139 41/73/140
s 37
f 6/14/141 5/13/142 41/73/143
s 38
f 7/17/144 6/14/145 41/73/146
s 39
f 8/75/147 7/17/148 41/73/149
s 40
f 1/1/150 8/75/151 41/73/152
s 41
f 33/58/153 34/57/154 42/76/155
s 42
f 34/57/156 35/60/157 42/76/158
s 43
f 35/60/159 36/77/160 42/76/161
s 44
f 36/77/162 37/67/163 42/76/164
s 45
f 37/67/165 38/66/166 42/76/167
s 46
f 38/66/168 39/69/169 42/76/170
s 47
f 39/69/171 40/78/172 42/76/173
s 48
f 40/78/174 33/58/175 42/76/176

# 48 faces
