# Wavefront Obj file
# 
# verts: 82 uv-s: 110
mtllib book_final.mtl

g textureEditorIsolateSelectSet
#pivot 0.000000 0.000000 0.000000

v -11.725876 4.191209 -18.577702
v -11.431603 4.187880 -18.581066
v -11.713273 5.072846 -18.551270
v -11.423653 5.069570 -18.554577
v -11.720646 5.090221 -19.214560
v -11.431026 5.086943 -19.217865
v -11.733191 4.213826 -19.240843
v -11.438915 4.210496 -19.244202
v -11.676430 4.189891 -18.577543
v -11.481050 4.187681 -18.579777
v -11.470757 5.071044 -18.553265
v -11.666132 5.073255 -18.551037
v -11.477673 5.087178 -19.175423
v -11.673051 5.089390 -19.173195
v -11.683290 4.211267 -19.199556
v -11.487911 4.209057 -19.201780
v -11.658878 4.237059 -18.643187
v -11.499025 4.235250 -18.645012
v -11.489787 5.027679 -18.621222
v -11.649641 5.029486 -18.619398
v -11.495698 5.043769 -19.154964
v -11.655553 5.045577 -19.153141
v -11.664790 4.253151 -19.176931
v -11.504932 4.251341 -19.178757
v -11.693261 4.633276 -18.616280
v -11.661180 4.633004 -18.615898
v -11.654262 4.633273 -18.631287
v -11.494405 4.631463 -18.633110
v -11.487145 4.631035 -18.617878
v -11.455081 4.630580 -18.618996
v -11.461424 4.647850 -19.191805
v -11.699602 4.650546 -19.189085
v -11.702547 4.862734 -19.182650
v -11.453538 4.859916 -19.185495
v -11.447024 4.842182 -18.597300
v -11.484497 4.843124 -18.596113
v -11.492096 4.829570 -18.627169
v -11.651951 4.831379 -18.625343
v -11.658529 4.845092 -18.594118
v -11.696034 4.845001 -18.594456
v -11.702981 4.420769 -18.607170
v -11.663486 4.419988 -18.606878
v -11.656570 4.435164 -18.637241
v -11.496716 4.433356 -18.639065
v -11.489452 4.418018 -18.608871
v -11.449968 4.417906 -18.610056
v -11.456480 4.435639 -19.198256
v -11.709494 4.438502 -19.195368
v -11.717087 5.069076 -18.881870
v -11.669866 5.069264 -18.874315
v -11.652424 5.037058 -18.870564
v -11.492565 5.035251 -18.872398
v -11.474490 5.067054 -18.876541
v -11.427468 5.065799 -18.885176
v -11.450278 4.851049 -18.891394
v -11.458169 4.638984 -18.897696
v -11.453225 4.426772 -18.904158
v -11.435101 4.211559 -18.910849
v -11.484468 4.211139 -18.902241
v -11.501808 4.242823 -18.896179
v -11.661660 4.244630 -18.894360
v -11.679845 4.213349 -18.900013
v -11.729374 4.214889 -18.907488
v -11.706236 4.429636 -18.901270
v -11.696347 4.641678 -18.894987
v -11.699290 4.853867 -18.888556
v -11.576432 5.089572 -19.269476
v -11.575531 5.088105 -19.188845
v -11.575786 5.045112 -19.168566
v -11.572496 5.036155 -18.871479
v -11.569715 5.028582 -18.620312
v -11.572022 4.830477 -18.626257
v -11.574333 4.632368 -18.632200
v -11.576643 4.434261 -18.638151
v -11.578953 4.236153 -18.644100
v -11.581735 4.243726 -18.895269
v -11.585023 4.252682 -19.192360
# 77 positions

vt 0.397794 0.070200
vt 0.501284 0.070231
vt 0.501285 0.111949
vt 0.397802 0.111936
vt 0.007135 0.070228
vt 0.162950 0.070225
vt 0.162963 0.112073
vt 0.014755 0.112135
vt 0.839623 0.070226
vt 0.995437 0.070227
vt 0.987820 0.112132
vt 0.839608 0.112086
vt 0.604720 0.070233
vt 0.604719 0.111940
vt 0.294338 0.070235
vt 0.294334 0.111979
vt 0.708150 0.070237
vt 0.708150 0.111992
vt 0.162968 0.028387
vt 0.014755 0.028321
vt 0.294334 0.028465
vt 0.397794 0.028514
vt 0.501285 0.028498
vt 0.604720 0.028511
vt 0.708149 0.028457
vt 0.839609 0.028375
vt 0.987819 0.028324
# 27 texture coordinates

vn 0.011066 -0.030119 0.999485
vn 0.011063 -0.030137 0.999485
vn 0.011053 -0.030135 0.999485
vn 0.011048 -0.030119 0.999485
vn 0.011643 0.999482 0.030004
vn 0.011641 0.999482 0.030004
vn 0.011649 0.999482 0.030004
vn 0.011656 0.999482 0.030003
vn -0.011648 -0.999482 -0.030004
vn -0.011649 -0.999482 -0.030003
vn -0.011639 -0.999482 -0.030000
vn -0.011637 -0.999482 -0.030004
vn 0.011063 -0.030149 0.999484
vn 0.011066 -0.030150 0.999484
vn 0.011066 -0.030126 0.999485
vn 0.011048 -0.030128 0.999485
vn 0.011066 -0.030136 0.999485
vn 0.011072 -0.030138 0.999484
vn 0.011640 0.999482 0.030005
vn 0.011643 0.999482 0.030005
vn -0.011646 -0.999482 -0.030004
vn -0.011636 -0.999482 -0.030007
vn 0.011633 0.999482 0.030005
vn 0.011629 0.999482 0.030004
vn 0.011637 0.999482 0.030005
vn 0.011084 -0.030119 0.999485
vn 0.011084 -0.030124 0.999485
vn 0.011072 -0.030138 0.999485
vn 0.011060 -0.030148 0.999484
vn 0.011060 -0.030133 0.999485
vn -0.011658 -0.999482 -0.030004
vn -0.011657 -0.999482 -0.030002
vn -0.011659 -0.999482 -0.030006
# 33 normals

usemtl lambert7SG
s 1
f 72/1/1 73/2/2 28/3/3 37/4/4
f 73/2/2 74/13/13 44/14/14 28/3/3
f 71/15/15 72/1/1 37/4/4 19/16/16
f 74/13/13 75/17/17 18/18/18 44/14/14
f 38/22/26 72/1/1 71/15/15 20/21/27
f 27/23/28 73/2/2 72/1/1 38/22/26
f 43/24/29 74/13/13 73/2/2 27/23/28
f 17/25/30 75/17/17 74/13/13 43/24/29
s 2
f 69/5/5 70/6/6 52/7/7 21/8/8
f 70/6/6 71/15/19 19/16/20 52/7/7
f 51/19/23 70/6/6 69/5/5 22/20/24
f 20/21/25 71/15/19 70/6/6 51/19/23
s 4
f 76/9/9 77/10/10 24/11/11 60/12/12
f 75/17/21 76/9/9 60/12/12 18/18/22
f 61/26/31 76/9/9 75/17/21 17/25/32
f 23/27/33 77/10/10 76/9/9 61/26/31

g Book_Low
#pivot 0.000000 0.000000 0.000000

v -11.585750 4.211215 -19.215164
v -11.586637 4.214381 -19.295746
v -11.583576 4.438676 -19.250051
v -11.581103 4.650803 -19.243687
v -11.578629 4.862930 -19.237322
# 5 positions

vt 0.490627 0.517319
vt 0.489800 0.635273
vt 0.415354 0.635401
vt 0.407858 0.517204
vt 0.255035 0.638291
vt 0.251591 0.517321
vt 0.583585 0.517319
vt 0.745094 0.517635
vt 0.738734 0.643096
vt 0.572260 0.637058
vt 0.072547 0.517420
vt 0.091325 0.517276
vt 0.085345 0.643342
vt 0.063483 0.640904
vt 0.939475 0.648880
vt 0.916353 0.651057
vt 0.911705 0.517788
vt 0.931566 0.517960
vt 0.261361 0.787974
vt 0.263533 0.760381
vt 0.434429 0.745826
vt 0.426718 0.771354
vt 0.490772 0.744641
vt 0.490403 0.783062
vt 0.548699 0.748649
vt 0.726355 0.769936
vt 0.727739 0.798870
vt 0.555762 0.775011
vt 0.490732 0.251688
vt 0.491065 0.290357
vt 0.433878 0.289462
vt 0.426965 0.263117
vt 0.263717 0.274600
vt 0.261752 0.245705
vt 0.728003 0.235336
vt 0.726807 0.265633
vt 0.549897 0.286749
vt 0.556165 0.259594
vt 0.062933 0.517397
vt 0.047497 0.628932
vt 0.956597 0.636513
vt 0.941771 0.517946
vt 0.260436 0.809090
vt 0.420523 0.800740
vt 0.489511 0.816993
vt 0.728006 0.821046
vt 0.560838 0.805562
vt 0.489881 0.217865
vt 0.420901 0.233844
vt 0.260887 0.224719
vt 0.728263 0.213301
vt 0.561181 0.229173
vt 0.916422 0.384493
vt 0.940716 0.387086
vt 0.957778 0.399427
vt 0.046673 0.405853
vt 0.062629 0.393948
vt 0.085596 0.391149
vt 0.255047 0.396426
vt 0.414880 0.399264
vt 0.489949 0.399552
vt 0.573097 0.397797
vt 0.739047 0.392239
vt 0.072773 0.778035
vt 0.046194 0.773856
vt 0.015986 0.737365
vt 0.954622 0.789376
vt 0.987368 0.751564
vt 0.926439 0.793182
vt 0.926682 0.242518
vt 0.956222 0.246763
vt 0.988925 0.284518
vt 0.045345 0.261151
vt 0.015088 0.297531
vt 0.073215 0.256583
vt 0.923534 0.821705
vt 0.878645 0.844760
vt 0.074827 0.805160
vt 0.116901 0.828070
vt 0.075483 0.228138
vt 0.117555 0.205448
vt 0.923603 0.212617
vt 0.878783 0.189676
# 83 texture coordinates

vn -0.011060 0.031133 -0.999454
vn -0.012170 -0.069256 -0.997525
vn 0.371550 -0.067574 -0.925951
vn 0.389110 0.024040 -0.920878
vn 0.997474 -0.069822 -0.013055
vn 0.999915 -0.006606 -0.011271
vn 0.999915 -0.006605 -0.011269
vn 0.997333 -0.071622 -0.014061
vn -0.999805 0.016020 0.011552
vn -0.999805 0.016020 0.011552
vn -0.998837 -0.047231 0.009730
vn -0.998759 -0.049033 0.008726
vn 0.031754 -0.030472 0.999031
vn 0.031760 -0.029930 0.999047
vn 0.027218 -0.145817 0.988937
vn 0.027323 -0.144600 0.989113
vn -0.008050 -0.144211 0.989514
vn -0.007977 -0.145432 0.989336
vn -0.009677 -0.029470 0.999519
vn -0.009684 -0.030006 0.999503
vn 0.038149 0.999028 0.022074
vn 0.040674 0.998711 0.030365
vn 0.051067 0.996605 0.064576
vn 0.051067 0.996605 0.064576
vn 0.010860 0.999842 0.014043
vn 0.011476 0.999836 0.014034
vn 0.011476 0.999836 0.014034
vn 0.010860 0.999842 0.014043
vn -0.027012 0.997489 0.065471
vn -0.017365 0.999368 0.031028
vn -0.015026 0.999630 0.022684
vn -0.027012 0.997489 0.065471
vn -0.011791 -0.999021 -0.042631
vn -0.011791 -0.999021 -0.042631
vn -0.013318 -0.999003 -0.042608
vn -0.013318 -0.999003 -0.042608
vn 0.021342 -0.999761 0.004724
vn 0.011343 -0.999493 -0.029744
vn 0.009045 -0.999250 -0.037653
vn 0.021342 -0.999761 0.004724
vn -0.032529 -0.998779 -0.037177
vn -0.034651 -0.998972 -0.029221
vn -0.043870 -0.999022 0.005467
vn -0.043870 -0.999022 0.005467
vn -0.951282 0.001881 0.308316
vn -0.951283 0.001787 0.308314
vn -0.961954 0.001688 0.273205
vn -0.957248 -0.003364 0.289248
vn 0.963286 -0.025098 0.267303
vn 0.967735 -0.020140 0.251162
vn 0.957880 -0.019817 0.286485
vn 0.957881 -0.019725 0.286487
vn -0.899192 0.437030 0.021402
vn -0.898867 0.437620 0.022947
vn -0.897029 0.440850 0.031460
vn -0.897029 0.440850 0.031460
vn -0.128898 0.445083 0.886164
vn 0.015267 0.448124 0.893841
vn 0.015265 0.448124 0.893841
vn -0.128898 0.445083 0.886164
vn 0.907273 0.420401 0.010858
vn 0.908833 0.417153 0.002315
vn 0.909109 0.416558 0.000760
vn 0.907273 0.420401 0.010858
vn 0.004162 -0.502980 0.864288
vn 0.004152 -0.502980 0.864288
vn -0.139733 -0.496100 0.856948
vn -0.139733 -0.496100 0.856948
vn -0.906073 -0.423085 0.005544
vn -0.907837 -0.419313 -0.002784
vn -0.908152 -0.418619 -0.004308
vn -0.906073 -0.423085 0.005544
vn 0.898112 -0.439059 -0.024927
vn 0.897815 -0.439751 -0.023396
vn 0.896144 -0.443508 -0.015027
vn 0.896144 -0.443508 -0.015027
vn -0.005289 0.086375 0.996249
vn -0.005427 0.084655 0.996396
vn 0.967755 -0.017475 0.251286
vn 0.963475 -0.013447 0.267459
vn -0.957161 0.008278 0.289437
vn -0.961900 0.004355 0.273367
vn 0.030010 0.084229 0.995994
vn 0.029908 0.085954 0.995850
vn 0.998569 0.052659 -0.009371
vn 0.998471 0.054317 -0.010281
vn -0.009845 0.130190 -0.991440
vn 0.369646 0.115797 -0.921929
vn -0.996961 0.076897 0.012489
vn -0.997075 0.075240 0.013405
vn -0.013052 -0.157155 -0.987488
vn 0.350360 -0.150561 -0.924434
vn 0.994609 -0.102759 -0.013915
vn 0.994560 -0.102965 -0.015747
vn 0.023689 -0.186521 0.982166
vn 0.023689 -0.186521 0.982165
vn -0.966676 0.007107 0.255903
vn -0.966676 0.007107 0.255903
vn 0.972182 -0.014814 0.233758
vn 0.972182 -0.014814 0.233758
vn -0.005519 -0.186170 0.982502
vn -0.005519 -0.186170 0.982502
vn -0.996738 -0.080217 0.008812
vn -0.996737 -0.080421 0.006988
vn -0.002021 0.127050 0.991894
vn -0.002021 0.127050 0.991894
vn 0.972103 -0.021869 0.233532
vn 0.972103 -0.021869 0.233532
vn -0.966750 0.000070 0.255723
vn -0.966750 0.000070 0.255723
vn 0.027458 0.126703 0.991561
vn 0.027458 0.126703 0.991561
vn 0.996624 0.081671 -0.008373
vn 0.996581 0.081990 -0.010209
vn -0.008696 0.216358 -0.976275
vn 0.349367 0.198011 -0.915824
vn -0.994444 0.104519 0.012512
vn -0.994453 0.104198 0.014352
vn -0.005352 0.999916 -0.011806
vn -0.005352 0.999916 -0.011806
vn 0.910571 0.413279 -0.007753
vn 0.910571 0.413279 -0.007753
vn -0.900932 0.433768 0.012917
vn -0.900932 0.433768 0.012917
vn 0.027692 0.999542 -0.012184
vn 0.027692 0.999542 -0.012184
vn 0.997327 -0.072047 -0.012137
vn 0.994654 -0.102554 -0.012093
vn 0.999915 -0.006607 -0.011273
vn 0.998477 0.054544 -0.008322
vn 0.996664 0.081354 -0.006546
vn -0.000971 -0.997399 -0.072071
vn -0.000971 -0.997399 -0.072071
vn -0.909817 -0.414819 -0.012605
vn -0.909817 -0.414819 -0.012605
vn 0.899685 -0.435271 -0.033263
vn 0.899685 -0.435271 -0.033263
vn -0.023256 -0.997147 -0.071817
vn -0.023256 -0.997147 -0.071817
vn -0.994458 0.103879 0.016183
vn -0.996917 0.077121 0.014455
vn -0.999805 0.016019 0.011552
vn -0.998719 -0.049460 0.010640
vn -0.996737 -0.080015 0.010627
vn 0.012092 0.999829 0.014026
vn 0.012092 0.999829 0.014026
vn 0.159110 0.441821 0.882881
vn 0.159110 0.441821 0.882881
vn 0.147958 -0.499395 0.853647
vn 0.147958 -0.499395 0.853647
vn -0.010264 -0.999037 -0.042653
vn -0.010264 -0.999037 -0.042653
vn -0.387879 0.124371 -0.913281
vn -0.365609 0.206102 -0.907663
vn -0.409388 0.033080 -0.911761
vn -0.394023 -0.058913 -0.917210
vn -0.374684 -0.142363 -0.916158
# 157 normals

usemtl lambert7SG
s 3
f 81/28/34 82/29/35 34/30/36 31/31/37
f 80/88/120 81/28/34 31/31/37 47/87/121
f 82/29/35 67/50/124 6/48/125 34/30/36
f 79/57/148 80/88/120 47/87/121 8/58/149
f 48/89/186 80/88/120 79/57/148 7/64/187
f 32/34/188 81/28/34 80/88/120 48/89/186
f 33/37/189 82/29/35 81/28/34 32/34/188
f 5/52/190 67/50/124 82/29/35 33/37/189
s 5
f 55/32/38 56/33/39 31/31/40 34/30/41
f 56/33/39 57/86/118 47/87/119 31/31/40
f 54/47/126 55/32/38 34/30/41 6/48/127
f 57/86/118 58/60/146 8/58/147 47/87/119
f 35/40/160 55/32/38 54/47/126 4/91/161
f 30/39/162 56/33/39 55/32/38 35/40/160
f 46/85/163 57/86/118 56/33/39 30/39/162
f 2/102/164 58/60/146 57/86/118 46/85/163
s 6
f 32/34/42 65/35/43 66/36/44 33/37/45
f 48/89/122 64/90/123 65/35/43 32/34/42
f 33/37/45 66/36/44 49/53/136 5/52/137
f 7/64/150 63/63/151 64/90/123 48/89/122
f 64/90/123 63/63/151 1/97/173 41/80/174
f 65/35/43 64/90/123 41/80/174 25/44/175
f 66/36/44 65/35/43 25/44/175 40/43/176
f 49/53/136 66/36/44 40/43/176 3/96/177
s 7
f 29/38/46 30/39/47 35/40/48 36/41/49
f 45/84/116 46/85/117 30/39/47 29/38/46
f 36/41/49 35/40/48 4/91/128 11/92/129
f 2/102/144 46/85/117 45/84/116 10/100/145
s 8
f 39/42/50 40/43/51 25/44/52 26/45/53
f 26/45/53 25/44/52 41/80/110 42/81/111
f 3/96/134 40/43/51 39/42/50 12/94/135
f 42/81/111 41/80/110 1/97/138 9/98/139
s 9
f 53/46/54 54/47/55 6/48/56 13/49/57
f 4/91/158 54/47/55 53/46/54 11/105/159
s 10
f 6/48/58 67/50/59 68/51/60 13/49/61
f 68/51/60 67/50/59 5/52/178 14/55/179
s 11
f 5/52/62 49/53/63 50/54/64 14/55/65
f 50/54/64 49/53/63 3/96/152 12/103/153
s 12
f 78/56/66 79/57/67 8/58/68 16/59/69
f 7/64/184 79/57/67 78/56/66 15/65/185
s 13
f 8/58/70 58/60/71 59/61/72 16/59/73
f 59/61/72 58/60/71 2/102/165 10/107/166
s 14
f 62/62/74 63/63/75 7/64/76 15/65/77
f 1/97/171 63/63/75 62/62/74 9/109/172
s 15
f 28/66/78 29/38/79 36/41/80 37/67/81
f 44/83/114 45/84/115 29/38/79 28/66/78
f 37/67/81 36/41/80 11/92/130 19/93/131
f 10/100/142 45/84/115 44/83/114 18/101/143
s 16
f 38/68/82 39/42/83 26/45/84 27/69/85
f 27/69/85 26/45/84 42/81/112 43/82/113
f 12/94/132 39/42/83 38/68/82 20/95/133
f 43/82/113 42/81/112 9/98/140 17/99/141
s 17
f 52/70/86 53/46/87 13/49/88 21/71/89
f 11/105/156 53/46/87 52/70/86 19/106/157
s 18
f 13/49/90 68/51/91 69/72/92 21/71/93
f 69/72/92 68/51/91 14/55/180 22/74/181
s 19
f 14/55/94 50/54/95 51/73/96 22/74/97
f 51/73/96 50/54/95 12/103/154 20/104/155
s 20
f 77/75/98 78/56/99 16/59/100 24/76/101
f 15/65/182 78/56/99 77/75/98 23/79/183
s 21
f 16/59/102 59/61/103 60/77/104 24/76/105
f 60/77/104 59/61/103 10/107/167 18/108/168
s 22
f 61/78/106 62/62/107 15/65/108 23/79/109
f 9/109/169 62/62/107 61/78/106 17/110/170

# 80 faces
