# Wavefront Obj file
# 
# verts: 102 uv-s: 150
mtllib bone_def.mtl

g pCylinder59
#pivot 0.000000 0.000000 0.000000

v -12.371985 0.518900 -33.820545
v -12.437870 0.580067 -33.820545
v -12.437870 0.655674 -33.820545
v -12.371985 0.716840 -33.820545
v -12.265376 0.740204 -33.894554
v -12.158772 0.716840 -33.820545
v -12.092885 0.655674 -33.820545
v -12.092885 0.580067 -33.820545
v -12.158772 0.518900 -33.820545
v -12.265376 0.495537 -33.894554
v -12.371985 0.518900 -35.327309
v -12.437870 0.580067 -35.327309
v -12.437870 0.655674 -35.327309
v -12.371985 0.716840 -35.327309
v -12.265376 0.740204 -35.253304
v -12.158772 0.716840 -35.327309
v -12.092885 0.655674 -35.327309
v -12.092885 0.580067 -35.327309
v -12.158772 0.518900 -35.327309
v -12.265376 0.495537 -35.253304
v -12.409225 0.484328 -33.703888
v -12.498122 0.566862 -33.703888
v -12.498122 0.668879 -33.703888
v -12.409225 0.751414 -33.703888
v -12.265376 0.782938 -33.799828
v -12.121530 0.751413 -33.703888
v -12.032629 0.668879 -33.703888
v -12.032629 0.566862 -33.703888
v -12.121530 0.484327 -33.703888
v -12.265376 0.452803 -33.799828
v -12.409225 0.484328 -35.443962
v -12.498122 0.566862 -35.443962
v -12.498122 0.668879 -35.443962
v -12.409225 0.751412 -35.443962
v -12.265376 0.782938 -35.348026
v -12.121530 0.751412 -35.443962
v -12.032629 0.668879 -35.443962
v -12.032629 0.566862 -35.443962
v -12.121530 0.484328 -35.443962
v -12.265376 0.452803 -35.348026
v -12.520946 0.380612 -33.520870
v -12.678888 0.527247 -33.520870
v -12.678888 0.708493 -33.520870
v -12.520946 0.855131 -33.520870
v -12.265372 0.911138 -33.651226
v -12.009811 0.855129 -33.520870
v -11.851864 0.708495 -33.520870
v -11.851864 0.527247 -33.520870
v -12.009811 0.380610 -33.520870
v -12.265376 0.324603 -33.651226
v -12.520946 0.380612 -35.626984
v -12.678888 0.527247 -35.626984
v -12.678888 0.708494 -35.626984
v -12.520946 0.855129 -35.626984
v -12.265376 0.911138 -35.496628
v -12.009811 0.855129 -35.626984
v -11.851864 0.708494 -35.626984
v -11.851864 0.527246 -35.626984
v -12.009811 0.380612 -35.626984
v -12.265376 0.324603 -35.496628
v -12.558185 0.346040 -33.392681
v -12.739141 0.514043 -33.392681
v -12.739141 0.721698 -33.392681
v -12.558185 0.889702 -33.392681
v -12.265372 0.953871 -33.547138
v -11.972572 0.889701 -33.392681
v -11.791607 0.721699 -33.392681
v -11.791607 0.514041 -33.392681
v -11.972572 0.346039 -33.392681
v -12.265376 0.281869 -33.547138
v -12.558185 0.346040 -35.755173
v -12.739141 0.514042 -35.755173
v -12.739141 0.721699 -35.755173
v -12.558185 0.889701 -35.755173
v -12.265376 0.953872 -35.600716
v -11.972572 0.889701 -35.755173
v -11.791607 0.721700 -35.755173
v -11.791607 0.514041 -35.755173
v -11.972572 0.346040 -35.755173
v -12.265376 0.281869 -35.600716
v -12.483704 0.415184 -33.199245
v -12.618631 0.540452 -33.199245
v -12.618631 0.695288 -33.199245
v -12.483704 0.820558 -33.199245
v -12.265372 0.868404 -33.390076
v -12.047052 0.820556 -33.199245
v -11.912117 0.695288 -33.199245
v -11.912117 0.540452 -33.199245
v -12.047052 0.415183 -33.199245
v -12.265376 0.367337 -33.390076
v -12.483704 0.415184 -35.948605
v -12.618631 0.540452 -35.948605
v -12.618631 0.695288 -35.948605
v -12.483704 0.820556 -35.948605
v -12.265376 0.868404 -35.757771
v -12.047052 0.820557 -35.948605
v -11.912117 0.695289 -35.948605
v -11.912117 0.540452 -35.948605
v -12.047052 0.415185 -35.948605
v -12.265376 0.367337 -35.757771
v -12.265376 0.617870 -33.310261
v -12.265376 0.617870 -35.837597
# 102 positions

vt 0.118747 0.845872
vt 0.146560 0.845872
vt 0.146560 0.999002
vt 0.118747 0.999002
vt 0.198331 0.999002
vt 0.151012 0.999002
vt 0.151012 0.845872
vt 0.198331 0.845872
vt 0.203388 0.845872
vt 0.231202 0.845872
vt 0.231202 0.999002
vt 0.203388 0.999002
vt 0.276207 0.853393
vt 0.276207 0.991481
vt 0.321210 0.845872
vt 0.321210 0.999002
vt 0.349024 0.845872
vt 0.349024 0.999002
vt 0.353295 0.845872
vt 0.400614 0.845872
vt 0.400614 0.999002
vt 0.353295 0.999002
vt 0.000925 0.845872
vt 0.028738 0.845872
vt 0.028738 0.999002
vt 0.000925 0.999002
vt 0.073742 0.853393
vt 0.073742 0.991481
vt 0.350053 0.162838
vt 0.200926 0.211292
vt 0.293093 0.084436
vt 0.350053 0.259746
vt 0.293093 0.338147
vt 0.200926 0.368094
vt 0.108761 0.338147
vt 0.051798 0.259746
vt 0.051798 0.162838
vt 0.108761 0.084436
vt 0.200926 0.054490
vt 0.798603 0.610069
vt 0.770789 0.571786
vt 0.786510 0.550148
vt 0.824038 0.601804
vt 0.798603 0.657389
vt 0.824038 0.665653
vt 0.770789 0.695671
vt 0.786510 0.717310
vt 0.725784 0.710294
vt 0.725784 0.737040
vt 0.680781 0.695671
vt 0.665060 0.717309
vt 0.652967 0.657389
vt 0.627530 0.665653
vt 0.652967 0.610069
vt 0.627530 0.601804
vt 0.680781 0.571786
vt 0.665060 0.550148
vt 0.725784 0.557163
vt 0.725784 0.530418
vt 0.560666 0.149349
vt 0.532853 0.187632
vt 0.507417 0.179367
vt 0.544946 0.127712
vt 0.532853 0.234952
vt 0.507417 0.243216
vt 0.560666 0.273234
vt 0.544946 0.294872
vt 0.605671 0.287857
vt 0.605671 0.314603
vt 0.650674 0.273234
vt 0.666396 0.294872
vt 0.678488 0.234952
vt 0.703925 0.243216
vt 0.678488 0.187632
vt 0.703925 0.179367
vt 0.650674 0.149349
vt 0.666396 0.127712
vt 0.605671 0.134727
vt 0.605671 0.107981
vt 0.833672 0.485235
vt 0.900348 0.577010
vt 0.900348 0.690447
vt 0.833672 0.782223
vt 0.725783 0.817277
vt 0.617898 0.782222
vt 0.551220 0.690448
vt 0.551220 0.577010
vt 0.617898 0.485234
vt 0.725784 0.450181
vt 0.431107 0.154573
vt 0.497783 0.062798
vt 0.431107 0.268010
vt 0.497783 0.359785
vt 0.605671 0.394840
vt 0.713558 0.359785
vt 0.780235 0.268011
vt 0.780235 0.154573
vt 0.713558 0.062799
vt 0.605671 0.027744
vt 0.849393 0.463598
vt 0.925784 0.568746
vt 0.925784 0.698712
vt 0.849393 0.803861
vt 0.725783 0.844022
vt 0.602177 0.803860
vt 0.525783 0.698712
vt 0.525783 0.568745
vt 0.602177 0.463597
vt 0.725784 0.423435
vt 0.405671 0.146308
vt 0.482062 0.041161
vt 0.405671 0.276275
vt 0.482062 0.381423
vt 0.605671 0.421586
vt 0.729278 0.381423
vt 0.805672 0.276276
vt 0.805672 0.146308
vt 0.729278 0.041161
vt 0.605671 0.000998
vt 0.121946 0.568746
vt 0.198337 0.463598
vt 0.229779 0.506873
vt 0.172819 0.585275
vt 0.121946 0.698712
vt 0.172819 0.682182
vt 0.198337 0.803861
vt 0.229779 0.760585
vt 0.321947 0.844022
vt 0.321947 0.790531
vt 0.445553 0.803860
vt 0.414111 0.760584
vt 0.521947 0.698712
vt 0.471074 0.682182
vt 0.521947 0.568745
vt 0.471074 0.585275
vt 0.445553 0.463597
vt 0.414111 0.506873
vt 0.321946 0.423435
vt 0.321946 0.476927
vt 0.324535 0.041161
vt 0.400926 0.146308
vt 0.400926 0.276275
vt 0.324535 0.381423
vt 0.200926 0.421586
vt 0.077319 0.381423
vt 0.000925 0.276276
vt 0.000925 0.146308
vt 0.077319 0.041161
vt 0.200926 0.000998
vt 0.321946 0.633729
# 150 texture coordinates

vn -0.510131 -0.835978 -0.202254
vn -0.888851 -0.391135 -0.238657
vn -0.888849 -0.391135 0.238664
vn -0.510130 -0.835978 0.202260
vn -0.888850 0.391137 -0.238659
vn -0.888848 0.391139 0.238664
vn -0.510132 0.835977 -0.202256
vn -0.510130 0.835978 0.202259
vn 0.000006 0.978778 -0.204926
vn 0.000006 0.978777 0.204929
vn 0.510130 0.835978 -0.202259
vn 0.510128 0.835978 0.202264
vn 0.888844 0.391144 -0.238669
vn 0.888842 0.391145 0.238675
vn 0.888845 -0.391141 -0.238669
vn 0.888843 -0.391141 0.238675
vn 0.510130 -0.835978 -0.202260
vn 0.510128 -0.835977 0.202264
vn 0.000006 -0.978778 -0.204923
vn 0.000006 -0.978777 0.204929
vn -0.299484 -0.128722 -0.945378
vn 0.000000 0.000000 -1.000000
vn 0.102352 -0.517278 -0.849675
vn -0.299483 0.128722 -0.945379
vn 0.102352 0.517277 -0.849676
vn -0.000003 0.710522 -0.703675
vn -0.102359 0.517281 -0.849672
vn 0.299480 0.128726 -0.945379
vn 0.299480 -0.128725 -0.945379
vn -0.102359 -0.517280 -0.849673
vn -0.000002 -0.710522 -0.703675
vn -0.523186 -0.681452 -0.511761
vn -0.736612 -0.331365 -0.589576
vn -0.736612 0.331363 -0.589577
vn -0.523185 0.681450 -0.511764
vn 0.000009 0.828548 -0.559918
vn 0.523186 0.681450 -0.511765
vn 0.736603 0.331371 -0.589584
vn 0.736604 -0.331367 -0.589584
vn 0.523185 -0.681450 -0.511765
vn 0.000004 -0.828550 -0.559916
vn -0.736611 -0.331365 0.589577
vn -0.523183 -0.681452 0.511764
vn -0.736610 0.331367 0.589577
vn -0.523183 0.681452 0.511764
vn 0.000005 0.828548 0.559918
vn 0.523182 0.681452 0.511765
vn 0.736602 0.331371 0.589585
vn 0.736603 -0.331370 0.589585
vn 0.523181 -0.681453 0.511765
vn 0.000005 -0.828549 0.559917
vn -0.511765 -0.699094 -0.499363
vn -0.746499 -0.335278 -0.574741
vn -0.746501 0.335275 -0.574741
vn -0.511763 0.699097 -0.499362
vn 0.000011 0.843785 -0.536682
vn 0.511763 0.699097 -0.499362
vn 0.746490 0.335285 -0.574749
vn 0.746491 -0.335283 -0.574749
vn 0.511761 -0.699098 -0.499363
vn 0.000001 -0.843783 -0.536684
vn -0.746502 -0.335279 0.574737
vn -0.511764 -0.699097 0.499360
vn -0.746501 0.335280 0.574737
vn -0.511764 0.699097 0.499361
vn 0.000003 0.843785 0.536682
vn 0.511760 0.699100 0.499360
vn 0.746492 0.335286 0.574746
vn 0.746493 -0.335287 0.574745
vn 0.511760 -0.699101 0.499359
vn 0.000003 -0.843785 0.536681
vn -0.679431 -0.731819 0.053059
vn -0.679431 -0.731819 0.053059
vn -0.998267 0.000000 0.058852
vn -0.998267 0.000000 0.058852
vn -0.679435 0.731815 0.053060
vn -0.679435 0.731815 0.053060
vn -0.169080 0.985284 0.025055
vn -0.169080 0.985284 0.025055
vn 0.169093 0.985282 0.025055
vn 0.169093 0.985282 0.025055
vn 0.679411 0.731837 0.053056
vn 0.679411 0.731837 0.053056
vn 0.998268 0.000000 0.058839
vn 0.998268 0.000000 0.058839
vn 0.679414 -0.731835 0.053053
vn 0.679414 -0.731835 0.053053
vn 0.169087 -0.985283 0.025055
vn 0.169087 -0.985283 0.025055
vn -0.169089 -0.985282 0.025053
vn -0.169089 -0.985282 0.025053
vn -0.679429 -0.731820 -0.053063
vn -0.679429 -0.731820 -0.053063
vn -0.998266 0.000000 -0.058857
vn -0.998266 0.000000 -0.058857
vn -0.679429 0.731820 -0.053065
vn -0.679429 0.731820 -0.053065
vn -0.169084 0.985283 -0.025060
vn -0.169084 0.985283 -0.025060
vn 0.169087 0.985283 -0.025058
vn 0.169087 0.985283 -0.025058
vn 0.679411 0.731837 -0.053056
vn 0.679411 0.731837 -0.053056
vn 0.998267 0.000000 -0.058843
vn 0.998267 0.000000 -0.058843
vn 0.679410 -0.731838 -0.053058
vn 0.679410 -0.731838 -0.053058
vn 0.169087 -0.985283 -0.025059
vn 0.169087 -0.985283 -0.025059
vn -0.169084 -0.985283 -0.025058
vn -0.169084 -0.985283 -0.025058
vn 0.102354 -0.517271 0.849679
vn -0.299479 -0.128720 0.945380
vn -0.299479 0.128719 0.945380
vn 0.102353 0.517268 0.849681
vn -0.000004 0.710515 0.703682
vn -0.102362 0.517275 0.849675
vn 0.299475 0.128722 0.945381
vn 0.299475 -0.128723 0.945381
vn -0.102362 -0.517273 0.849677
vn -0.000004 -0.710515 0.703682
vn -0.000001 -0.000000 1.000000
# 122 normals

usemtl initialShadingGroup
s 1
f 1/1/1 2/2/2 12/3/3 11/4/4
f 2/5/2 3/6/5 13/7/6 12/8/3
f 3/9/5 4/10/7 14/11/8 13/12/6
f 4/10/7 5/13/9 15/14/10 14/11/8
f 5/13/9 6/15/11 16/16/12 15/14/10
f 6/15/11 7/17/13 17/18/14 16/16/12
f 7/19/13 8/20/15 18/21/16 17/22/14
f 8/23/15 9/24/17 19/25/18 18/26/16
f 9/24/17 10/27/19 20/28/20 19/25/18
f 10/27/19 1/1/1 11/4/4 20/28/20
f 92/29/21 102/30/22 91/31/23
f 93/32/24 102/30/22 92/29/21
f 94/33/25 102/30/22 93/32/24
f 95/34/26 102/30/22 94/33/25
f 96/35/27 102/30/22 95/34/26
f 97/36/28 102/30/22 96/35/27
f 98/37/29 102/30/22 97/36/28
f 99/38/30 102/30/22 98/37/29
f 100/39/31 102/30/22 99/38/30
f 91/31/23 102/30/22 100/39/31
f 2/40/2 1/41/1 21/42/32 22/43/33
f 3/44/5 2/40/2 22/43/33 23/45/34
f 4/46/7 3/44/5 23/45/34 24/47/35
f 5/48/9 4/46/7 24/47/35 25/49/36
f 6/50/11 5/48/9 25/49/36 26/51/37
f 7/52/13 6/50/11 26/51/37 27/53/38
f 8/54/15 7/52/13 27/53/38 28/55/39
f 9/56/17 8/54/15 28/55/39 29/57/40
f 10/58/19 9/56/17 29/57/40 30/59/41
f 1/41/1 10/58/19 30/59/41 21/42/32
f 11/60/4 12/61/3 32/62/42 31/63/43
f 12/61/3 13/64/6 33/65/44 32/62/42
f 13/64/6 14/66/8 34/67/45 33/65/44
f 14/66/8 15/68/10 35/69/46 34/67/45
f 15/68/10 16/70/12 36/71/47 35/69/46
f 16/70/12 17/72/14 37/73/48 36/71/47
f 17/72/14 18/74/16 38/75/49 37/73/48
f 18/74/16 19/76/18 39/77/50 38/75/49
f 19/76/18 20/78/20 40/79/51 39/77/50
f 20/78/20 11/60/4 31/63/43 40/79/51
f 22/43/33 21/42/32 41/80/52 42/81/53
f 23/45/34 22/43/33 42/81/53 43/82/54
f 24/47/35 23/45/34 43/82/54 44/83/55
f 25/49/36 24/47/35 44/83/55 45/84/56
f 26/51/37 25/49/36 45/84/56 46/85/57
f 27/53/38 26/51/37 46/85/57 47/86/58
f 28/55/39 27/53/38 47/86/58 48/87/59
f 29/57/40 28/55/39 48/87/59 49/88/60
f 30/59/41 29/57/40 49/88/60 50/89/61
f 21/42/32 30/59/41 50/89/61 41/80/52
f 31/63/43 32/62/42 52/90/62 51/91/63
f 32/62/42 33/65/44 53/92/64 52/90/62
f 33/65/44 34/67/45 54/93/65 53/92/64
f 34/67/45 35/69/46 55/94/66 54/93/65
f 35/69/46 36/71/47 56/95/67 55/94/66
f 36/71/47 37/73/48 57/96/68 56/95/67
f 37/73/48 38/75/49 58/97/69 57/96/68
f 38/75/49 39/77/50 59/98/70 58/97/69
f 39/77/50 40/79/51 60/99/71 59/98/70
f 40/79/51 31/63/43 51/91/63 60/99/71
f 42/81/53 41/80/52 61/100/72 62/101/73
f 43/82/54 42/81/53 62/101/74 63/102/75
f 44/83/55 43/82/54 63/102/76 64/103/77
f 45/84/56 44/83/55 64/103/78 65/104/79
f 46/85/57 45/84/56 65/104/80 66/105/81
f 47/86/58 46/85/57 66/105/82 67/106/83
f 48/87/59 47/86/58 67/106/84 68/107/85
f 49/88/60 48/87/59 68/107/86 69/108/87
f 50/89/61 49/88/60 69/108/88 70/109/89
f 41/80/52 50/89/61 70/109/90 61/100/91
f 51/91/63 52/90/62 72/110/92 71/111/93
f 52/90/62 53/92/64 73/112/94 72/110/95
f 53/92/64 54/93/65 74/113/96 73/112/97
f 54/93/65 55/94/66 75/114/98 74/113/99
f 55/94/66 56/95/67 76/115/100 75/114/101
f 56/95/67 57/96/68 77/116/102 76/115/103
f 57/96/68 58/97/69 78/117/104 77/116/105
f 58/97/69 59/98/70 79/118/106 78/117/107
f 59/98/70 60/99/71 80/119/108 79/118/109
f 60/99/71 51/91/63 71/111/110 80/119/111
f 62/120/73 61/121/72 81/122/112 82/123/113
f 63/124/75 62/120/74 82/123/113 83/125/114
f 64/126/77 63/124/76 83/125/114 84/127/115
f 65/128/79 64/126/78 84/127/115 85/129/116
f 66/130/81 65/128/80 85/129/116 86/131/117
f 67/132/83 66/130/82 86/131/117 87/133/118
f 68/134/85 67/132/84 87/133/118 88/135/119
f 69/136/87 68/134/86 88/135/119 89/137/120
f 70/138/89 69/136/88 89/137/120 90/139/121
f 61/121/91 70/138/90 90/139/121 81/122/112
f 71/140/93 72/141/92 92/29/21 91/31/23
f 72/141/95 73/142/94 93/32/24 92/29/21
f 73/142/97 74/143/96 94/33/25 93/32/24
f 74/143/99 75/144/98 95/34/26 94/33/25
f 75/144/101 76/145/100 96/35/27 95/34/26
f 76/145/103 77/146/102 97/36/28 96/35/27
f 77/146/105 78/147/104 98/37/29 97/36/28
f 78/147/107 79/148/106 99/38/30 98/37/29
f 79/148/109 80/149/108 100/39/31 99/38/30
f 80/149/111 71/140/110 91/31/23 100/39/31
f 82/123/113 81/122/112 101/150/122
f 83/125/114 82/123/113 101/150/122
f 84/127/115 83/125/114 101/150/122
f 85/129/116 84/127/115 101/150/122
f 86/131/117 85/129/116 101/150/122
f 87/133/118 86/131/117 101/150/122
f 88/135/119 87/133/118 101/150/122
f 89/137/120 88/135/119 101/150/122
f 90/139/121 89/137/120 101/150/122
f 81/122/112 90/139/121 101/150/122

# 110 faces
