# This file uses centimeters as units for non-parametric coordinates.

mtllib portalcore.mtl
g default
v 12.166170 0.431926 -25.672427
v 16.715103 0.431926 -25.672427
v 12.011414 1.388276 -25.672427
v 16.869858 1.388276 -25.672427
v 12.011414 1.388276 -25.789947
v 16.869858 1.388276 -25.789947
v 12.166170 0.431926 -25.789947
v 16.715103 0.431926 -25.789947
v 12.170304 3.706931 -25.672427
v 16.710966 3.706931 -25.672427
v 16.710966 3.706931 -25.789947
v 12.170304 3.706931 -25.789947
v 12.790720 4.836799 -25.672427
v 16.090549 4.836799 -25.672427
v 16.090549 4.836799 -25.789947
v 12.790720 4.836799 -25.789947
v 14.440637 0.431926 -25.672427
v 14.440637 1.388276 -25.672427
v 14.440637 3.706931 -25.672427
v 14.440637 5.476918 -25.672427
v 14.440637 5.476918 -25.789947
v 14.440637 3.706931 -25.789947
v 14.440637 1.388276 -25.789947
v 14.440637 0.431926 -25.789947
v 13.303401 0.431926 -25.672427
v 13.226023 1.388276 -25.672427
v 13.305470 3.706931 -25.672427
v 13.615677 5.247135 -25.672427
v 13.615677 5.247135 -25.789947
v 13.305470 3.706931 -25.789947
v 13.226023 1.388276 -25.789947
v 13.303401 0.431926 -25.789947
v 15.577869 0.431926 -25.672427
v 15.655247 1.388276 -25.672427
v 15.575800 3.706931 -25.672427
v 15.265593 5.247135 -25.672427
v 15.265593 5.247135 -25.789947
v 15.575800 3.706931 -25.789947
v 15.655247 1.388276 -25.789947
v 15.577869 0.431926 -25.789947
vt 0.458240 0.186724
vt 0.585442 0.186724
vt 0.576787 0.293694
vt 0.440930 0.293694
vt 0.418645 0.829223
vt 0.559718 0.829223
vt 0.559718 0.849319
vt 0.418645 0.849319
vt 0.440930 0.293694
vt 0.576787 0.293694
vt 0.585442 0.186724
vt 0.458240 0.186724
vt 0.585674 0.553041
vt 0.458702 0.553041
vt 0.585674 0.553041
vt 0.458702 0.553041
vt 0.620371 0.725316
vt 0.528097 0.679419
vt 0.620371 0.725316
vt 0.528097 0.679419
vt 0.712644 0.293694
vt 0.712644 0.186724
vt 0.839846 0.186724
vt 0.848501 0.293694
vt 0.712644 0.553041
vt 0.839614 0.553041
vt 0.712644 0.751018
vt 0.804917 0.725316
vt 0.700793 0.849319
vt 0.700793 0.829223
vt 0.841866 0.829223
vt 0.841866 0.849319
vt 0.804917 0.725316
vt 0.839614 0.553041
vt 0.712644 0.553041
vt 0.712644 0.751018
vt 0.848501 0.293694
vt 0.712644 0.293694
vt 0.712644 0.186724
vt 0.839846 0.186724
vt 0.967049 0.186724
vt 0.984358 0.293694
vt 0.966586 0.553041
vt 0.897191 0.679419
vt 0.982939 0.829223
vt 0.982939 0.849319
vt 0.966586 0.553041
vt 0.897191 0.679419
vt 0.984358 0.293694
vt 0.967049 0.186724
vn 0.000000 0.000000 1.000000
vn 0.000000 0.000000 1.000000
vn 0.000000 0.000000 1.000000
vn 0.000000 0.000000 1.000000
vn -0.445353 0.895355 0.000000
vn -0.361702 0.932294 0.000000
vn -0.361702 0.932294 0.000000
vn -0.445353 0.895355 0.000000
vn 0.000000 0.000000 -1.000000
vn 0.000000 0.000000 -1.000000
vn 0.000000 0.000000 -1.000000
vn 0.000000 0.000000 -1.000000
vn -0.000000 0.000000 1.000000
vn -0.000000 0.000000 1.000000
vn -0.000000 0.000000 -1.000000
vn 0.000000 0.000000 -1.000000
vn 0.000001 0.000000 1.000000
vn -0.000002 0.000000 1.000000
vn -0.000001 0.000000 -1.000000
vn 0.000000 0.000000 -1.000000
vn 0.000000 0.000000 1.000000
vn 0.000000 0.000000 1.000000
vn 0.000000 0.000000 1.000000
vn 0.000000 0.000000 1.000000
vn 0.000000 0.000000 1.000000
vn -0.000000 0.000000 1.000000
vn 0.000000 0.000000 1.000000
vn -0.000001 0.000000 1.000000
vn 0.000000 1.000000 0.000000
vn 0.000000 1.000000 0.000000
vn 0.361703 0.932294 0.000000
vn 0.361703 0.932294 0.000000
vn 0.000001 0.000000 -1.000000
vn 0.000000 0.000000 -1.000000
vn 0.000000 0.000000 -1.000000
vn -0.000000 0.000000 -1.000000
vn 0.000000 0.000000 -1.000000
vn 0.000000 0.000000 -1.000000
vn 0.000000 0.000000 -1.000000
vn 0.000000 0.000000 -1.000000
vn 0.000000 0.000000 1.000000
vn 0.000000 0.000000 1.000000
vn 0.000000 0.000000 1.000000
vn 0.000001 0.000000 1.000000
vn 0.445353 0.895355 0.000000
vn 0.445353 0.895355 0.000000
vn 0.000000 0.000000 -1.000000
vn 0.000000 0.000000 -1.000000
vn 0.000000 0.000000 -1.000000
vn 0.000000 0.000000 -1.000000
s 1
g polySurface54 pCube42
usemtl initialShadingGroup
f 1/1/1 25/2/2 26/3/3 3/4/4
s 2
f 13/5/5 28/6/6 29/7/7 16/8/8
s 3
f 5/9/9 31/10/10 32/11/11 7/12/12
s 1
f 3/4/4 26/3/3 27/13/13 9/14/14
s 3
f 30/15/15 31/10/10 5/9/9 12/16/16
s 1
f 9/14/14 27/13/13 28/17/17 13/18/18
s 3
f 29/19/19 30/15/15 12/16/16 16/20/20
s 1
f 18/21/21 17/22/22 33/23/23 34/24/24
f 19/25/25 18/21/21 34/24/24 35/26/26
f 20/27/27 19/25/25 35/26/26 36/28/28
s 2
f 21/29/29 20/30/30 36/31/31 37/32/32
s 3
f 37/33/33 38/34/34 22/35/35 21/36/36
f 38/34/34 39/37/37 23/38/38 22/35/35
f 24/39/39 23/38/38 39/37/37 40/40/40
s 1
f 26/3/3 25/2/2 17/22/22 18/21/21
f 27/13/13 26/3/3 18/21/21 19/25/25
f 28/17/17 27/13/13 19/25/25 20/27/27
s 2
f 29/7/7 28/6/6 20/30/30 21/29/29
s 3
f 21/36/36 22/35/35 30/15/15 29/19/19
f 22/35/35 23/38/38 31/10/10 30/15/15
f 32/11/11 31/10/10 23/38/38 24/39/39
s 1
f 34/24/24 33/23/23 2/41/41 4/42/42
f 35/26/26 34/24/24 4/42/42 10/43/43
f 36/28/28 35/26/26 10/43/43 14/44/44
s 2
f 37/32/32 36/31/31 14/45/45 15/46/46
s 3
f 11/47/47 38/34/34 37/33/33 15/48/48
f 6/49/49 39/37/37 38/34/34 11/47/47
f 40/40/40 39/37/37 6/49/49 8/50/50
