# Wavefront Obj file
# 
# verts: 96 uv-s: 146
mtllib portalgate_def.mtl

g polySurface41
#pivot 0.000000 0.000000 0.000000

v 12.387416 1.820730 -26.020313
v 11.538033 2.243219 -25.883320
v 12.387416 1.820730 -25.563000
v 11.538033 2.243219 -25.700006
v 12.286434 2.808893 -26.020313
v 11.624414 3.047559 -25.883320
v 11.624414 3.047559 -25.700006
v 12.286434 2.808893 -25.563000
v 12.400867 3.524211 -26.020313
v 11.763605 3.735203 -25.883320
v 11.763605 3.735203 -25.700006
v 12.400867 3.524211 -25.563000
v 12.654419 4.495952 -26.005043
v 12.078503 4.582579 -25.883320
v 12.078503 4.582579 -25.700006
v 12.654419 4.495952 -25.578268
v 12.990228 5.040631 -25.987543
v 12.479369 5.130022 -25.883320
v 12.479369 5.130022 -25.700006
v 12.990228 5.040631 -25.595766
v 13.353156 5.488837 -25.952023
v 13.075325 5.578226 -25.883320
v 13.075325 5.578226 -25.700006
v 13.353156 5.488837 -25.631290
v 13.607758 5.745416 -25.807915
v 13.478045 5.709148 -25.825943
v 13.478045 5.709148 -25.757368
v 13.607758 5.745416 -25.775394
v 12.791587 0.481893 -26.246304
v 11.273068 0.481893 -26.060314
v 12.791587 0.481893 -25.337008
v 11.273068 0.481893 -25.523010
v 12.579926 0.935499 -26.020313
v 12.640653 0.857359 -26.075748
v 11.475714 0.937295 -25.883320
v 11.423462 0.857089 -25.927223
v 12.579926 0.935499 -25.563000
v 12.640653 0.857359 -25.507544
v 11.475714 0.937295 -25.700006
v 11.423462 0.857089 -25.656105
v 12.741590 0.806892 -26.189806
v 12.791587 0.725996 -26.246304
v 11.323063 0.806892 -26.016062
v 11.273068 0.725996 -26.060314
v 12.741590 0.806892 -25.393488
v 12.791587 0.725996 -25.337008
v 11.323063 0.806892 -25.567251
v 11.273068 0.725996 -25.523010
v 16.537428 1.820730 -25.563000
v 17.386810 2.243219 -25.699993
v 16.537428 1.820730 -26.020313
v 17.386810 2.243219 -25.883308
v 16.638409 2.808893 -25.563000
v 17.300428 3.047559 -25.699993
v 17.300428 3.047559 -25.883308
v 16.638409 2.808893 -26.020313
v 16.523975 3.524211 -25.563000
v 17.161238 3.735203 -25.699993
v 17.161238 3.735203 -25.883308
v 16.523975 3.524211 -26.020313
v 16.270424 4.495952 -25.578268
v 16.846340 4.582579 -25.699993
v 16.846340 4.582579 -25.883308
v 16.270424 4.495952 -26.005043
v 15.934616 5.040631 -25.595770
v 16.445475 5.130022 -25.699993
v 16.445475 5.130022 -25.883308
v 15.934616 5.040631 -25.987549
v 15.571688 5.488837 -25.631290
v 15.849519 5.578226 -25.699993
v 15.849519 5.578226 -25.883308
v 15.571688 5.488837 -25.952023
v 15.317084 5.745416 -25.775394
v 15.446796 5.709148 -25.757368
v 15.446796 5.709148 -25.825943
v 15.317084 5.745416 -25.807915
v 16.133257 0.481893 -25.337013
v 17.651772 0.481893 -25.523001
v 16.133257 0.481893 -26.246304
v 17.651772 0.481893 -26.060305
v 16.344917 0.935499 -25.563000
v 16.284191 0.857359 -25.507565
v 17.449127 0.937295 -25.699993
v 17.501379 0.857089 -25.656090
v 16.344917 0.935499 -26.020313
v 16.284191 0.857359 -26.075769
v 17.449127 0.937295 -25.883308
v 17.501379 0.857089 -25.927210
v 16.183252 0.806892 -25.393507
v 16.133257 0.725996 -25.337013
v 17.601780 0.806892 -25.567251
v 17.651772 0.725996 -25.523001
v 16.183252 0.806892 -26.189823
v 16.133257 0.725996 -26.246304
v 17.601780 0.806892 -26.016062
v 17.651772 0.725996 -26.060305
# 96 positions

vt 0.326362 0.940940
vt 0.324210 0.935406
vt 0.332829 0.935406
vt 0.330677 0.940940
vt 0.183284 0.342045
vt 0.315294 0.406516
vt 0.315820 0.529255
vt 0.213248 0.492836
vt 0.341744 0.406516
vt 0.341218 0.529255
vt 0.473754 0.342045
vt 0.443790 0.492836
vt 0.536821 0.342045
vt 0.605640 0.342045
vt 0.605779 0.492836
vt 0.536682 0.492836
vt 0.316585 0.634188
vt 0.221270 0.601991
vt 0.340453 0.634188
vt 0.435769 0.601991
vt 0.605228 0.601991
vt 0.537233 0.601991
vt 0.317921 0.763495
vt 0.246553 0.750276
vt 0.339117 0.763495
vt 0.410485 0.750276
vt 0.601129 0.750276
vt 0.541332 0.750276
vt 0.318294 0.847033
vt 0.268709 0.833392
vt 0.338744 0.847033
vt 0.388330 0.833392
vt 0.595792 0.833392
vt 0.546669 0.833392
vt 0.318600 0.915427
vt 0.295389 0.901787
vt 0.338438 0.915427
vt 0.361650 0.901787
vt 0.589809 0.901787
vt 0.552652 0.901787
vt 0.573014 0.940940
vt 0.569447 0.940940
vt 0.337296 0.163066
vt 0.332128 0.145305
vt 0.546087 0.145243
vt 0.542717 0.163474
vt 0.242433 0.163066
vt 0.230397 0.145305
vt 0.606356 0.145243
vt 0.609979 0.163474
vt 0.834224 0.145305
vt 0.821606 0.163066
vt 0.326501 0.133833
vt 0.324191 0.115446
vt 0.553840 0.115446
vt 0.551634 0.133833
vt 0.206732 0.133833
vt 0.193690 0.115446
vt 0.597774 0.115446
vt 0.600154 0.133833
vt 0.867818 0.115446
vt 0.856147 0.133833
vt 0.150981 0.206962
vt 0.315404 0.207236
vt 0.341634 0.207236
vt 0.506057 0.206962
vt 0.537100 0.206962
vt 0.605361 0.206962
vt 0.324188 0.059962
vt 0.552127 0.059962
vt 0.188568 0.059962
vt 0.600267 0.059962
vt 0.869793 0.059962
vt 0.326362 0.940940
vt 0.324210 0.935406
vt 0.332829 0.935406
vt 0.330677 0.940940
vt 0.183284 0.342045
vt 0.315294 0.406516
vt 0.315820 0.529256
vt 0.213248 0.492836
vt 0.341744 0.406516
vt 0.341218 0.529256
vt 0.473755 0.342045
vt 0.443790 0.492836
vt 0.536821 0.342045
vt 0.605640 0.342045
vt 0.605779 0.492836
vt 0.536682 0.492836
vt 0.316585 0.634188
vt 0.221270 0.601991
vt 0.340453 0.634188
vt 0.435769 0.601991
vt 0.605228 0.601991
vt 0.537233 0.601991
vt 0.317921 0.763495
vt 0.246553 0.750276
vt 0.339117 0.763495
vt 0.410486 0.750276
vt 0.601129 0.750276
vt 0.541332 0.750276
vt 0.318294 0.847033
vt 0.268709 0.833392
vt 0.338744 0.847033
vt 0.388330 0.833392
vt 0.595792 0.833392
vt 0.546669 0.833392
vt 0.318600 0.915427
vt 0.295389 0.901787
vt 0.338438 0.915427
vt 0.361650 0.901787
vt 0.589809 0.901787
vt 0.552652 0.901787
vt 0.573014 0.940940
vt 0.569447 0.940940
vt 0.337296 0.163066
vt 0.332128 0.145305
vt 0.546087 0.145243
vt 0.542717 0.163474
vt 0.242433 0.163066
vt 0.230397 0.145305
vt 0.606356 0.145243
vt 0.609979 0.163474
vt 0.834224 0.145305
vt 0.821606 0.163066
vt 0.326501 0.133833
vt 0.324191 0.115446
vt 0.553840 0.115446
vt 0.551634 0.133833
vt 0.206732 0.133833
vt 0.193690 0.115446
vt 0.597774 0.115446
vt 0.600154 0.133833
vt 0.867818 0.115446
vt 0.856147 0.133833
vt 0.150981 0.206962
vt 0.315404 0.207236
vt 0.341634 0.207236
vt 0.506057 0.206962
vt 0.537100 0.206962
vt 0.605361 0.206962
vt 0.324188 0.059962
vt 0.552127 0.059962
vt 0.188568 0.059962
vt 0.600267 0.059962
vt 0.869793 0.059962
# 146 texture coordinates

vn -0.178107 0.850912 -0.494193
vn -0.233498 0.916841 -0.323853
vn -0.233509 0.916840 0.323850
vn -0.178124 0.850912 0.494188
vn -0.159858 -0.004909 -0.987128
vn -0.159858 -0.004909 -0.987128
vn -0.186803 0.016859 -0.982253
vn -0.186803 0.016859 -0.982253
vn -0.997011 0.077257 0.000000
vn -0.997011 0.077257 0.000000
vn -0.988265 0.152751 0.000000
vn -0.988265 0.152751 0.000000
vn -0.159873 -0.004909 0.987125
vn -0.159873 -0.004909 0.987125
vn -0.186821 0.016860 0.982249
vn -0.186821 0.016860 0.982249
vn 0.987546 0.157330 0.000000
vn 0.987546 0.157330 0.000000
vn 0.999597 -0.028393 0.000000
vn 0.999597 -0.028393 0.000000
vn -0.193319 0.051706 -0.979773
vn -0.193319 0.051706 -0.979773
vn -0.961672 0.274201 0.000000
vn -0.961672 0.274201 0.000000
vn -0.193338 0.051710 0.979769
vn -0.193338 0.051710 0.979769
vn 0.978666 -0.205459 0.000000
vn 0.978666 -0.205459 0.000000
vn -0.186274 0.102783 -0.977107
vn -0.186274 0.102783 -0.977107
vn -0.880480 0.474083 0.000000
vn -0.880480 0.474083 0.000000
vn -0.186297 0.102793 0.977101
vn -0.186297 0.102793 0.977101
vn 0.919552 -0.392969 0.000000
vn 0.919552 -0.392969 0.000000
vn -0.171795 0.175034 -0.969458
vn -0.171795 0.175034 -0.969458
vn -0.711612 0.702573 0.000000
vn -0.711612 0.702573 0.000000
vn -0.171821 0.175058 0.969449
vn -0.171821 0.175058 0.969449
vn 0.815869 -0.578237 0.000000
vn 0.815869 -0.578237 0.000000
vn -0.102898 0.368298 -0.923996
vn -0.102898 0.368298 -0.923996
vn -0.461400 0.887192 0.000000
vn -0.461400 0.887192 0.000000
vn -0.102927 0.368317 0.923985
vn -0.102927 0.368317 0.923985
vn 0.744448 -0.667681 0.000000
vn 0.744448 -0.667681 0.000000
vn 0.709837 -0.704366 0.000000
vn 0.709837 -0.704366 0.000000
vn -0.103589 0.524587 -0.845031
vn -0.103589 0.524587 -0.845031
vn -0.103589 0.524587 -0.845031
vn -0.103589 0.524587 -0.845031
vn 0.634133 0.773224 0.000000
vn 0.905858 0.423582 0.000000
vn 0.905858 0.423582 0.000000
vn 0.634133 0.773224 0.000000
vn -0.837880 0.545854 0.000000
vn -0.837880 0.545854 0.000000
vn -0.837880 0.545854 0.000000
vn -0.837880 0.545854 0.000000
vn -0.103601 0.524659 0.844985
vn -0.103601 0.524659 0.844985
vn -0.103601 0.524659 0.844985
vn -0.103601 0.524659 0.844985
vn -0.103413 0.525768 -0.844319
vn -0.103413 0.525768 -0.844319
vn -0.103413 0.525768 -0.844319
vn -0.103413 0.525768 -0.844319
vn 0.850651 0.525731 0.000000
vn 0.850651 0.525731 0.000000
vn 0.850651 0.525731 0.000000
vn 0.850651 0.525731 0.000000
vn -0.850660 0.525716 0.000000
vn -0.850660 0.525716 0.000000
vn -0.850660 0.525716 0.000000
vn -0.850660 0.525716 0.000000
vn -0.103431 0.525659 0.844384
vn -0.103431 0.525659 0.844384
vn -0.103431 0.525659 0.844384
vn -0.103431 0.525659 0.844384
vn -0.140663 -0.008358 -0.990022
vn -0.140663 -0.008358 -0.990022
vn -0.140677 -0.008359 0.990020
vn -0.140677 -0.008359 0.990020
vn -0.998863 0.047666 0.000000
vn -0.998863 0.047666 0.000000
vn -0.054367 0.894425 -0.443901
vn -0.054367 0.894425 -0.443901
vn -0.054367 0.894425 -0.443901
vn -0.054367 0.894425 -0.443901
vn 0.447200 0.894434 0.000000
vn 0.447200 0.894434 0.000000
vn -0.054374 0.894436 0.443878
vn -0.054374 0.894436 0.443878
vn -0.054374 0.894436 0.443878
vn -0.054374 0.894436 0.443878
vn -0.447197 0.894436 0.000000
vn -0.447197 0.894436 0.000000
vn -0.447197 0.894436 0.000000
vn -0.447197 0.894436 0.000000
vn -0.121572 0.000000 -0.992583
vn -0.121572 0.000000 -0.992583
vn -0.121572 0.000000 -0.992583
vn -0.121572 0.000000 -0.992583
vn 1.000000 0.000000 0.000000
vn 1.000000 0.000000 0.000000
vn 1.000000 0.000000 0.000000
vn 1.000000 0.000000 0.000000
vn -0.121581 0.000000 0.992582
vn -0.121581 0.000000 0.992582
vn -0.121581 0.000000 0.992582
vn -0.121581 0.000000 0.992582
vn -1.000000 0.000000 0.000000
vn -1.000000 0.000000 0.000000
vn -1.000000 0.000000 0.000000
vn -1.000000 0.000000 0.000000
vn 0.178110 0.850910 0.494195
vn 0.233500 0.916840 0.323854
vn 0.233505 0.916841 -0.323849
vn 0.178119 0.850913 -0.494187
vn 0.159858 -0.004909 0.987128
vn 0.159858 -0.004909 0.987128
vn 0.186803 0.016859 0.982253
vn 0.186803 0.016859 0.982253
vn 0.997011 0.077257 0.000000
vn 0.997011 0.077257 0.000000
vn 0.988265 0.152751 0.000000
vn 0.988265 0.152751 0.000000
vn 0.159871 -0.004909 -0.987126
vn 0.159871 -0.004909 -0.987126
vn 0.186818 0.016860 -0.982250
vn 0.186818 0.016860 -0.982250
vn -0.987546 0.157330 0.000000
vn -0.987546 0.157330 0.000000
vn -0.999597 -0.028393 0.000000
vn -0.999597 -0.028393 0.000000
vn 0.193319 0.051706 0.979773
vn 0.193319 0.051706 0.979773
vn 0.961672 0.274201 0.000000
vn 0.961672 0.274201 0.000000
vn 0.193335 0.051710 -0.979769
vn 0.193335 0.051710 -0.979769
vn -0.978666 -0.205459 0.000000
vn -0.978666 -0.205459 0.000000
vn 0.186275 0.102783 0.977107
vn 0.186275 0.102783 0.977107
vn 0.880480 0.474083 0.000000
vn 0.880480 0.474083 0.000000
vn 0.186293 0.102790 -0.977102
vn 0.186293 0.102790 -0.977102
vn -0.919552 -0.392969 0.000000
vn -0.919552 -0.392969 0.000000
vn 0.171795 0.175035 0.969458
vn 0.171795 0.175035 0.969458
vn 0.711612 0.702573 0.000000
vn 0.711612 0.702573 0.000000
vn 0.171819 0.175055 -0.969450
vn 0.171819 0.175055 -0.969450
vn -0.815870 -0.578236 0.000000
vn -0.815870 -0.578236 0.000000
vn 0.102900 0.368296 0.923996
vn 0.102900 0.368296 0.923996
vn 0.461399 0.887193 0.000000
vn 0.461399 0.887193 0.000000
vn 0.102922 0.368319 -0.923985
vn 0.102922 0.368319 -0.923985
vn -0.744446 -0.667682 0.000000
vn -0.744446 -0.667682 0.000000
vn -0.709834 -0.704369 0.000000
vn -0.709834 -0.704369 0.000000
vn 0.103589 0.524587 0.845031
vn 0.103589 0.524587 0.845031
vn 0.103589 0.524587 0.845031
vn 0.103589 0.524587 0.845031
vn -0.634134 0.773223 0.000000
vn -0.905859 0.423579 0.000000
vn -0.905859 0.423579 0.000000
vn -0.634134 0.773223 0.000000
vn 0.837880 0.545854 0.000000
vn 0.837880 0.545854 0.000000
vn 0.837880 0.545854 0.000000
vn 0.837880 0.545854 0.000000
vn 0.103600 0.524660 -0.844985
vn 0.103600 0.524660 -0.844985
vn 0.103600 0.524660 -0.844985
vn 0.103600 0.524660 -0.844985
vn 0.103415 0.525745 0.844333
vn 0.103415 0.525745 0.844333
vn 0.103415 0.525745 0.844333
vn 0.103415 0.525745 0.844333
vn -0.850655 0.525724 0.000000
vn -0.850655 0.525724 0.000000
vn -0.850655 0.525724 0.000000
vn -0.850655 0.525724 0.000000
vn 0.850673 0.525695 0.000000
vn 0.850673 0.525695 0.000000
vn 0.850673 0.525695 0.000000
vn 0.850673 0.525695 0.000000
vn 0.103429 0.525665 -0.844380
vn 0.103429 0.525665 -0.844380
vn 0.103429 0.525665 -0.844380
vn 0.103429 0.525665 -0.844380
vn 0.140664 -0.008358 0.990022
vn 0.140664 -0.008358 0.990022
vn 0.140675 -0.008359 -0.990021
vn 0.140675 -0.008359 -0.990021
vn 0.998863 0.047664 0.000000
vn 0.998863 0.047664 0.000000
vn 0.054367 0.894425 0.443901
vn 0.054367 0.894425 0.443901
vn 0.054367 0.894425 0.443901
vn 0.054367 0.894425 0.443901
vn -0.447197 0.894436 0.000000
vn -0.447197 0.894436 0.000000
vn 0.054374 0.894433 -0.443884
vn 0.054374 0.894433 -0.443884
vn 0.054374 0.894433 -0.443884
vn 0.054374 0.894433 -0.443884
vn 0.447190 0.894439 0.000000
vn 0.447190 0.894439 0.000000
vn 0.447190 0.894439 0.000000
vn 0.447190 0.894439 0.000000
vn 0.121571 0.000000 0.992583
vn 0.121571 0.000000 0.992583
vn 0.121571 0.000000 0.992583
vn 0.121571 0.000000 0.992583
vn -1.000000 0.000000 0.000000
vn -1.000000 0.000000 0.000000
vn -1.000000 0.000000 0.000000
vn -1.000000 0.000000 0.000000
vn 0.121579 0.000000 -0.992582
vn 0.121579 0.000000 -0.992582
vn 0.121579 0.000000 -0.992582
vn 0.121579 0.000000 -0.992582
vn 1.000000 0.000000 0.000000
vn 1.000000 0.000000 0.000000
vn 1.000000 0.000000 0.000000
vn 1.000000 0.000000 0.000000
# 244 normals

usemtl initialShadingGroup
s 1
f 25/1/1 26/2/2 27/3/3 28/4/4
f 1/5/5 2/6/6 6/7/7 5/8/8
f 2/6/9 4/9/10 7/10/11 6/7/12
f 4/9/13 3/11/14 8/12/15 7/10/16
f 5/8/8 6/7/7 10/17/21 9/18/22
f 6/7/12 7/10/11 11/19/23 10/17/24
f 7/10/16 8/12/15 12/20/25 11/19/26
f 9/18/22 10/17/21 14/23/29 13/24/30
f 10/17/24 11/19/23 15/25/31 14/23/32
f 11/19/26 12/20/25 16/26/33 15/25/34
f 13/24/30 14/23/29 18/29/37 17/30/38
f 14/23/32 15/25/31 19/31/39 18/29/40
f 15/25/34 16/26/33 20/32/41 19/31/42
f 17/30/38 18/29/37 22/35/45 21/36/46
f 18/29/40 19/31/39 23/37/47 22/35/48
f 19/31/42 20/32/41 24/38/49 23/37/50
f 21/36/46 22/35/45 26/2/2 25/1/1
f 22/35/48 23/37/47 27/3/3 26/2/2
f 23/37/50 24/38/49 28/4/4 27/3/3
f 33/63/87 35/64/88 2/6/6 1/5/5
f 3/11/14 4/9/13 39/65/89 37/66/90
f 35/64/91 39/65/92 4/9/10 2/6/9
s 2
f 3/13/17 1/14/18 5/15/19 8/16/20
f 8/16/20 5/15/19 9/21/27 12/22/28
f 12/22/28 9/21/27 13/27/35 16/28/36
f 16/28/36 13/27/35 17/33/43 20/34/44
f 20/34/44 17/33/43 21/39/51 24/40/52
f 24/40/52 21/39/51 25/41/53 28/42/54
f 34/44/59 33/43/60 37/47/61 38/48/62
f 37/67/61 33/68/60 1/14/18 3/13/17
f 34/44/59 38/48/62 45/57/97 41/53/98
s 3
f 33/43/55 34/44/56 36/45/57 35/46/58
s 4
f 35/46/63 36/45/64 40/49/65 39/50/66
s 5
f 38/51/67 37/52/68 39/50/69 40/49/70
s 6
f 41/53/71 42/54/72 44/55/73 43/56/74
s 7
f 42/54/75 41/53/76 45/57/77 46/58/78
s 8
f 43/56/79 44/55/80 48/59/81 47/60/82
s 9
f 46/61/83 45/62/84 47/60/85 48/59/86
s 10
f 36/45/93 34/44/94 41/53/95 43/56/96
s 11
f 38/51/99 40/49/100 47/60/101 45/62/102
s 12
f 40/49/103 36/45/104 43/56/105 47/60/106
s 13
f 44/55/107 42/54/108 29/69/109 30/70/110
s 14
f 42/54/111 46/58/112 31/71/113 29/69/114
s 15
f 46/61/115 48/59/116 32/72/117 31/73/118
s 16
f 48/59/119 44/55/120 30/70/121 32/72/122
s 17
f 73/74/123 74/75/124 75/76/125 76/77/126
f 49/78/127 50/79/128 54/80/129 53/81/130
f 50/79/131 52/82/132 55/83/133 54/80/134
f 52/82/135 51/84/136 56/85/137 55/83/138
f 53/81/130 54/80/129 58/90/143 57/91/144
f 54/80/134 55/83/133 59/92/145 58/90/146
f 55/83/138 56/85/137 60/93/147 59/92/148
f 57/91/144 58/90/143 62/96/151 61/97/152
f 58/90/146 59/92/145 63/98/153 62/96/154
f 59/92/148 60/93/147 64/99/155 63/98/156
f 61/97/152 62/96/151 66/102/159 65/103/160
f 62/96/154 63/98/153 67/104/161 66/102/162
f 63/98/156 64/99/155 68/105/163 67/104/164
f 65/103/160 66/102/159 70/108/167 69/109/168
f 66/102/162 67/104/161 71/110/169 70/108/170
f 67/104/164 68/105/163 72/111/171 71/110/172
f 69/109/168 70/108/167 74/75/124 73/74/123
f 70/108/170 71/110/169 75/76/125 74/75/124
f 71/110/172 72/111/171 76/77/126 75/76/125
f 81/136/209 83/137/210 50/79/128 49/78/127
f 51/84/136 52/82/135 87/138/211 85/139/212
f 83/137/213 87/138/214 52/82/132 50/79/131
s 18
f 51/86/139 49/87/140 53/88/141 56/89/142
f 56/89/142 53/88/141 57/94/149 60/95/150
f 60/95/150 57/94/149 61/100/157 64/101/158
f 64/101/158 61/100/157 65/106/165 68/107/166
f 68/107/166 65/106/165 69/112/173 72/113/174
f 72/113/174 69/112/173 73/114/175 76/115/176
f 82/117/181 81/116/182 85/120/183 86/121/184
f 85/140/183 81/141/182 49/87/140 51/86/139
f 82/117/181 86/121/184 93/130/219 89/126/220
s 19
f 81/116/177 82/117/178 84/118/179 83/119/180
s 20
f 83/119/185 84/118/186 88/122/187 87/123/188
s 21
f 86/124/189 85/125/190 87/123/191 88/122/192
s 22
f 89/126/193 90/127/194 92/128/195 91/129/196
s 23
f 90/127/197 89/126/198 93/130/199 94/131/200
s 24
f 91/129/201 92/128/202 96/132/203 95/133/204
s 25
f 94/134/205 93/135/206 95/133/207 96/132/208
s 26
f 84/118/215 82/117/216 89/126/217 91/129/218
s 27
f 86/124/221 88/122/222 95/133/223 93/135/224
s 28
f 88/122/225 84/118/226 91/129/227 95/133/228
s 29
f 92/128/229 90/127/230 77/142/231 78/143/232
s 30
f 90/127/233 94/131/234 79/144/235 77/142/236
s 31
f 94/134/237 96/132/238 80/145/239 79/146/240
s 32
f 96/132/241 92/128/242 78/143/243 80/145/244

# 90 faces
